<svg width="96" height="52" viewBox="0 0 96 52" fill="none" xmlns="http://www.w3.org/2000/svg">
<path d="M4 22.5C2.067 22.5 0.5 24.067 0.5 26C0.5 27.933 2.067 29.5 4 29.5V22.5ZM94.4749 28.4749C95.8417 27.108 95.8417 24.892 94.4749 23.5251L72.201 1.25126C70.8342 -0.115572 68.6181 -0.115572 67.2513 1.25126C65.8844 2.6181 65.8844 4.83418 67.2513 6.20101L87.0503 26L67.2513 45.799C65.8844 47.1658 65.8844 49.3819 67.2513 50.7487C68.6181 52.1156 70.8342 52.1156 72.201 50.7487L94.4749 28.4749ZM4 29.5H92V22.5H4V29.5Z" fill="#2D2F2F"/>
</svg>
