<svg width="87" height="89" viewBox="0 0 87 89" fill="none" xmlns="http://www.w3.org/2000/svg">
<path d="M59.2961 29.417C65.5816 29.417 71.6097 32.0804 76.0542 36.8212C80.4987 41.562 82.9956 47.9919 82.9956 54.6964V84.1891H67.196V54.6964C67.196 52.4616 66.3637 50.3183 64.8822 48.738C63.4007 47.1577 61.3913 46.2699 59.2961 46.2699C57.201 46.2699 55.1916 47.1577 53.7101 48.738C52.2286 50.3183 51.3963 52.4616 51.3963 54.6964V84.1891H35.5967V54.6964C35.5967 47.9919 38.0936 41.562 42.5381 36.8212C46.9826 32.0804 53.0107 29.417 59.2961 29.417Z" stroke="#2D2F2F" stroke-width="7.89982" stroke-linecap="round" stroke-linejoin="round"/>
<path d="M19.7996 33.6357H4V84.1946H19.7996V33.6357Z" stroke="#2D2F2F" stroke-width="7.89982" stroke-linecap="round" stroke-linejoin="round"/>
<path d="M11.8998 20.9965C16.2628 20.9965 19.7996 17.2238 19.7996 12.57C19.7996 7.91622 16.2628 4.14355 11.8998 4.14355C7.53687 4.14355 4 7.91622 4 12.57C4 17.2238 7.53687 20.9965 11.8998 20.9965Z" stroke="#2D2F2F" stroke-width="7.89982" stroke-linecap="round" stroke-linejoin="round"/>
</svg>
