<svg width="1534" height="1328" viewBox="0 0 1534 1328" fill="none" xmlns="http://www.w3.org/2000/svg">
<g opacity="0.07">
<path d="M755.441 1.61858C749.629 4.81106 751.316 10.6326 758.816 13.8251C764.066 16.0786 766.504 18.8955 770.816 28.2852C778.691 44.9988 782.066 60.0222 782.066 77.4869C782.066 117.675 768.379 148.848 737.816 177.768C725.066 189.787 717.941 194.858 702.754 202.369C670.691 218.144 651.379 218.707 622.691 204.247C610.316 198.05 585.004 179.271 576.004 169.693C568.879 162.369 564.566 161.243 560.816 165.75C557.629 169.505 559.316 210.069 563.629 231.665C569.629 263.59 583.504 295.327 601.504 319.928C614.066 336.829 638.254 360.867 653.066 371.383C677.066 388.284 710.254 402.181 738.941 407.251C756.379 410.256 797.629 410.256 813.941 407.251C845.441 401.43 879.941 386.782 902.629 369.317C913.316 361.242 915.379 358.801 914.816 354.669C914.066 347.909 906.941 347.158 900.379 353.167C878.441 373.636 839.441 390.162 801.004 395.233C753.004 401.43 705.379 389.787 663.004 361.43C646.316 350.35 621.191 324.059 608.066 303.965C598.691 289.693 581.441 252.322 581.441 246.313C581.441 245.562 585.004 250.444 589.504 257.017C602.441 276.735 609.566 284.81 626.441 298.519C645.379 313.918 676.129 329.881 699.566 336.078C713.441 339.834 719.816 340.397 748.316 340.209C784.316 340.209 795.941 337.956 823.879 326.313C867.004 308.472 905.629 268.848 920.629 227.534C928.691 205.374 930.941 189.412 929.629 163.684C928.316 136.83 925.129 124.247 914.254 101.9C894.566 61.9001 856.879 27.534 815.629 12.135C795.566 4.62327 760.691 -1.5739 755.441 1.61858ZM803.816 23.027C822.379 29.2241 834.941 35.7969 848.066 45.9377C861.566 56.2663 867.379 63.9658 872.066 77.2991C887.066 119.928 857.254 174.951 802.504 204.998C772.879 221.336 748.316 226.031 697.691 225.092L685.504 224.904L700.504 218.707C736.316 204.059 764.816 177.205 782.254 141.149C798.566 107.722 801.191 69.7874 789.754 36.1725C786.566 26.9706 783.941 19.0833 783.941 18.8955C783.941 17.2054 791.629 18.8955 803.816 23.027ZM901.316 108.661C911.441 129.13 915.566 146.97 915.566 172.322C915.754 214.764 900.941 249.13 869.254 278.989C847.316 300.022 826.879 312.04 797.066 321.618C775.504 328.566 738.191 330.256 714.566 325.561C659.441 314.294 614.629 279.552 587.254 226.97C579.941 212.698 573.941 196.172 573.941 189.599C573.941 188.097 578.254 190.538 583.316 194.858C610.504 217.58 653.254 234.294 694.691 238.05C784.129 246.501 861.566 202.181 885.941 128.754C888.566 120.867 890.816 110.163 890.816 104.905C890.816 99.6465 891.566 95.3273 892.691 95.3273C893.629 95.3273 897.566 101.337 901.316 108.661Z" fill="#0A0A0A"/>
<path d="M975.004 10.2579C973.316 10.6335 971.066 12.887 969.941 15.3283C967.504 20.7743 971.629 27.7227 977.066 27.7227C981.566 27.7227 986.441 22.84 986.441 18.333C986.441 16.4551 985.129 13.4504 983.441 11.948C980.441 8.94336 980.066 8.75557 975.004 10.2579Z" fill="#0A0A0A"/>
<path d="M640.691 43.1184C636.754 48.5644 636.941 50.8179 641.066 54.5738C645.566 58.7052 649.504 58.5174 653.254 54.386C657.379 49.879 657.191 47.2499 652.691 42.7428C647.816 37.8602 644.254 38.048 640.691 43.1184Z" fill="#0A0A0A"/>
<path d="M534.941 68.284C527.629 73.3544 530.629 84.0586 539.441 84.0586C548.066 84.0586 550.504 72.791 543.004 67.9084C539.629 65.6549 538.504 65.8427 534.941 68.284Z" fill="#0A0A0A"/>
<path d="M389.253 102.65C385.316 103.401 382.691 105.655 380.816 109.786C378.753 114.293 376.316 116.171 372.003 117.11C364.503 118.613 361.878 121.43 363.378 126.876C364.128 129.88 366.191 131.383 371.628 132.134C377.253 133.073 379.128 134.387 380.628 138.519C382.878 145.467 388.878 148.472 396.941 146.969C402.003 146.03 403.878 144.528 406.128 139.458C408.003 134.575 409.878 132.885 413.253 132.885C419.816 132.885 424.316 128.754 423.566 123.308C423.191 119.739 421.691 118.613 416.441 117.862C411.191 117.11 409.316 115.608 406.503 109.786C404.816 106.031 402.566 102.838 401.628 102.838C400.691 102.838 398.816 102.462 397.316 102.087C396.003 101.711 392.441 101.899 389.253 102.65ZM397.316 121.054C399.753 125.749 398.066 129.129 393.753 129.129C389.066 129.129 387.191 124.434 390.191 120.678C393.191 116.923 395.253 117.11 397.316 121.054Z" fill="#0A0A0A"/>
<path d="M1149.94 112.602C1148.63 113.916 1147.69 119.738 1147.69 125.747V136.639H1139.44C1128.38 136.639 1125.19 138.142 1125.19 143.212C1125.19 148.282 1128.38 149.785 1139.25 149.785H1147.5L1148.07 162.367L1148.63 175.137H1154.25H1159.88L1160.44 162.367L1161 149.785H1170.19C1178.63 149.785 1185.19 146.592 1185.19 142.461C1185.19 138.893 1179.75 136.639 1170.75 136.639H1160.82V124.62C1160.82 115.419 1160.07 112.414 1157.82 111.475C1153.69 109.973 1152.57 109.973 1149.94 112.602Z" fill="#0A0A0A"/>
<path d="M217.691 119.738C213.191 124.245 213.191 125.184 216.941 130.63C220.316 135.7 225.378 135.888 229.503 131.381C233.816 126.686 233.441 122.367 228.566 118.987C223.128 115.231 222.191 115.231 217.691 119.738Z" fill="#0A0A0A"/>
<path d="M663.379 134.388C658.879 139.271 659.441 143.59 664.691 146.97C673.316 152.792 682.879 142.276 675.941 134.576C671.816 130.069 667.316 130.069 663.379 134.388Z" fill="#0A0A0A"/>
<path d="M1017.75 160.679C1015.88 162.557 1014.57 165.562 1014.57 167.252C1014.57 170.82 1019.63 176.078 1023.19 176.078C1026.19 176.078 1033.32 169.505 1033.32 166.688C1033.32 163.872 1026.19 157.299 1023.38 157.299C1021.88 157.299 1019.44 158.801 1017.75 160.679Z" fill="#0A0A0A"/>
<path d="M1311.19 165.185C1308 168.377 1308.38 173.448 1311.94 176.828C1316.25 181.147 1321.5 180.396 1325.07 175.138C1328.07 170.631 1328.07 170.068 1324.88 166.687C1321.13 162.556 1314.57 161.805 1311.19 165.185Z" fill="#0A0A0A"/>
<path d="M1137.94 222.837C1114.13 230.724 1097.63 247.438 1089.75 272.227L1087.5 279.175L1074.94 278.048C1067.82 277.485 1059 278.048 1054.5 279.175C1043.82 282.18 1029.57 292.133 1024.13 300.396C1019.82 307.156 1018.88 307.532 1010.07 307.532C993.004 307.72 977.254 317.673 967.691 334.574C960.754 346.593 960.379 352.039 966.566 353.729C972.754 355.231 974.816 353.729 978.379 344.903C981.941 335.889 995.629 323.494 1003.5 321.804C1006.69 321.241 1013.82 321.241 1019.44 321.804L1029.57 323.119L1033.13 314.668C1041.75 294.386 1065.38 285.184 1085.63 294.386C1098.94 300.583 1098.75 300.583 1101.75 282.368C1104.57 264.715 1118.63 246.311 1135.5 238.048C1148.82 231.476 1171.13 231.476 1183.32 237.861C1194.57 243.87 1203 250.443 1206.75 256.077C1209.75 260.771 1209.57 260.959 1202.25 269.034C1194 278.048 1193.44 279.363 1196.82 282.743C1200.38 286.311 1205.25 285.372 1210.88 280.114C1239.75 252.884 1288.5 267.907 1298.25 306.968C1300.69 316.921 1299 316.358 1320.57 313.917C1329 312.79 1329.75 313.166 1335.75 319.738C1342.13 326.687 1342.13 326.687 1347.94 323.682C1354.69 320.114 1369.32 319.738 1375.13 322.743C1380 325.56 1385.63 332.133 1385.82 335.137C1385.82 337.015 1371.38 337.579 1319.63 337.579H1253.44L1250.07 330.067C1248.19 325.935 1243.69 320.302 1240.13 317.297C1234.13 312.79 1231.69 312.227 1219.88 312.227C1207.88 312.227 1205.63 312.79 1199.25 317.673C1195.32 320.677 1190.82 326.311 1189.32 330.443L1186.5 337.579H1122.38C1075.13 337.579 1057.88 338.142 1056.19 339.832C1053 343.025 1053.38 348.283 1056.94 349.597C1060.69 351.1 1463.44 351.1 1467.19 349.597C1468.88 349.034 1470.19 346.968 1470.19 345.278C1470.19 338.33 1466.63 337.579 1434.57 337.579H1403.25L1398.75 327.813C1390.88 310.912 1373.82 302.649 1356.19 307.344C1349.07 309.41 1347.75 309.034 1340.44 304.339C1334.25 300.208 1330.5 299.081 1322.25 299.081L1311.75 299.269L1307.25 289.879C1301.44 277.86 1289.07 265.842 1275.94 259.457C1263.94 253.635 1241.63 251.194 1229.63 254.574C1223.07 256.452 1222.5 256.264 1220.07 251.382C1215.75 243.307 1200.94 230.724 1189.32 225.466C1174.88 218.894 1153.13 217.767 1137.94 222.837ZM1233.38 331.381C1235.82 334.198 1236.94 336.827 1236.19 337.015C1235.44 337.203 1227.94 337.579 1219.5 338.142C1205.82 338.705 1203.94 338.518 1203.94 335.701C1203.94 332.32 1208.44 327.626 1213.32 325.748C1219.32 323.306 1229.25 326.123 1233.38 331.381Z" fill="#0A0A0A"/>
<path d="M154.128 242.932C146.066 248.754 152.066 260.772 161.441 257.768C165.941 256.265 169.316 250.632 167.816 246.876C165.941 241.993 158.628 239.927 154.128 242.932Z" fill="#0A0A0A"/>
<path d="M430.879 278.989C426.754 283.496 426.942 285.562 431.067 289.317C437.629 295.327 446.442 292.134 446.442 284.059C446.442 275.796 436.692 272.604 430.879 278.989Z" fill="#0A0A0A"/>
<path d="M276.191 300.582C273.941 304.714 270.379 307.531 266.254 308.658C256.504 311.474 257.254 322.554 267.191 322.554C269.816 322.554 272.441 324.808 274.691 329.127C280.691 340.395 293.441 340.207 300.004 328.939C302.816 324.432 305.066 322.554 308.441 322.554C312.004 322.554 313.504 321.24 314.441 317.484C315.941 312.038 311.816 307.531 305.441 307.531C303.379 307.531 301.129 305.089 299.441 300.958C296.816 294.761 296.066 294.385 288.191 294.385C280.879 294.385 279.566 295.136 276.191 300.582ZM289.879 315.043C289.879 320.113 285.754 322.366 284.066 318.047C282.566 313.916 284.629 308.845 287.629 309.972C288.754 310.348 289.879 312.601 289.879 315.043Z" fill="#0A0A0A"/>
<path d="M450.566 368.941C449.629 370.819 448.316 375.514 447.566 379.27C446.066 387.157 442.129 390.162 433.691 390.162C427.504 390.162 423.379 393.918 424.316 398.988C424.691 401.429 427.504 402.744 434.254 403.683C444.754 405.185 447.379 407.814 449.066 418.331C449.816 423.401 451.316 426.03 453.941 426.782C459.379 428.472 462.566 425.279 465.004 415.514C467.254 406.5 471.191 403.307 480.004 403.307C483.754 403.307 486.379 401.993 487.691 399.364C490.691 394.106 487.504 390.913 477.941 389.599C469.316 388.472 467.816 386.782 466.129 376.641C464.441 366.688 454.316 361.805 450.566 368.941ZM460.316 393.167C462.191 398.237 461.629 399.552 456.754 399.552C454.129 399.552 452.066 398.8 452.066 397.861C452.066 394.106 454.504 390.162 456.754 390.162C458.066 390.162 459.754 391.476 460.316 393.167Z" fill="#0A0A0A"/>
<path d="M176.816 384.904C171.566 390.162 175.503 399.552 183.003 399.552C188.066 399.552 191.441 396.171 191.441 391.101C191.441 386.031 188.066 382.65 183.003 382.65C180.753 382.65 178.128 383.589 176.816 384.904Z" fill="#0A0A0A"/>
<path d="M1015.5 392.04C1014.19 394.106 1015.88 397.674 1017.94 397.674C1018.69 397.674 1020.57 396.735 1022.07 395.796C1024.5 394.106 1024.5 393.73 1022.07 392.04C1018.5 389.787 1017 389.787 1015.5 392.04Z" fill="#0A0A0A"/>
<path d="M1204.32 413.073C1201.32 416.078 1201.5 423.026 1204.69 425.843C1208.63 428.848 1215.19 427.533 1218.19 423.026C1223.25 415.327 1210.88 406.501 1204.32 413.073Z" fill="#0A0A0A"/>
<path d="M261.753 424.528C257.628 426.969 239.066 438.8 220.503 451.007C96.941 532.133 98.6279 531.007 90.0029 531.007C72.9404 531.007 65.4405 536.828 73.503 543.777C76.128 546.03 77.0654 549.223 77.0654 556.546C77.0654 566.875 78.7529 569.316 87.0029 571.382L92.0654 572.697V644.058V715.419L97.503 720.865C105.94 729.128 120.753 727.25 127.315 716.921C128.815 714.48 129.565 694.386 129.565 652.696C129.753 619.269 129.753 590.912 129.565 589.598C129.565 587.157 122.44 586.593 118.878 588.847C117.003 589.973 116.44 605.372 116.065 651.194C115.503 709.222 115.315 712.226 111.94 712.79C110.065 713.165 107.815 712.414 106.878 710.912C105.94 709.597 105.19 677.861 105.19 640.678V572.697L109.503 571.57C111.753 571.006 115.878 570.443 118.69 570.443C126.19 570.443 129.565 565.936 129.565 555.42V546.03L196.503 545.654C274.128 545.091 280.316 545.279 278.816 549.223C278.253 550.725 277.691 583.025 277.691 621.147V690.254L266.066 689.315C259.503 688.752 251.816 689.315 249.003 690.442C242.441 693.071 238.316 702.461 238.316 714.668V723.682L226.691 725.56L214.878 727.25L214.316 741.71L213.753 756.358H203.441C183.941 756.358 185.816 741.71 185.816 891.569C185.816 977.015 186.378 1023.21 187.691 1023.96C188.628 1024.53 190.691 1024.53 191.816 1023.59C193.128 1022.84 195.191 1022.09 196.128 1022.09C197.441 1022.09 198.378 978.329 198.941 896.264L199.878 770.442L303.003 769.879C359.816 769.691 407.066 769.879 408.003 770.254C409.128 770.63 409.691 777.766 409.316 788.095L408.753 805.184C408.753 844.733 408.941 989.221 408.941 989.221L409.128 1013.07C409.316 1026.4 409.503 1038.8 409.691 1040.86C409.878 1042.93 410.253 1049.5 410.441 1055.32C410.816 1066.03 411.003 1066.22 416.253 1066.22C421.128 1066.22 421.691 1065.65 422.628 1057.39C423.191 1052.7 423.753 945.09 423.753 818.517C423.941 691.945 424.316 588.283 424.503 588.096C424.691 587.72 445.128 587.344 469.878 587.157L514.878 586.969L515.441 879.362L515.816 1171.57L521.066 1171C523.878 1170.82 526.691 1169.69 527.441 1168.56C528.191 1167.62 528.941 1023.59 528.941 848.752V531.007H542.066H555.191V847.062V1163.31L559.878 1165.37C564.191 1167.44 564.941 1167.06 566.441 1162.74C567.566 1160.11 568.316 1145.84 568.316 1130.82V1103.78H613.316H658.316V1132.7C658.316 1148.66 658.878 1162.93 659.441 1164.62C660.941 1168.38 664.691 1168.38 668.441 1164.62C671.066 1161.99 671.441 1143.59 671.441 989.034V816.452H682.691H693.941V987.156C693.941 1081.05 694.503 1160.3 695.066 1163.49C696.003 1168.38 697.128 1169.13 701.253 1168.94L706.128 1168.56L706.691 1106.97L707.066 1045.56H717.378H727.691L727.879 1099.46C728.254 1171.57 728.066 1171.38 736.879 1168.56L740.816 1167.44V878.799C740.816 720.114 741.379 576.828 742.129 560.49L743.254 531.007H754.316H765.192V846.874C765.192 1020.77 765.942 1163.87 766.692 1165.18C768.004 1167.25 773.442 1167.62 775.129 1165.56C775.879 1165 778.129 1123.12 778.317 1108.85V1103.78H813.004H847.692L848.067 1134.2L848.629 1164.81L853.504 1165.37C857.629 1165.93 858.567 1165 859.692 1159.93C860.254 1156.73 860.817 1011.38 860.817 837.109C860.817 549.786 860.629 520.115 857.817 518.988C856.129 518.425 837.567 517.861 816.567 517.861H778.317V508.471V499.082H832.692H887.067L887.442 519.176C887.629 530.443 887.817 680.114 887.817 852.132C888.004 1024.15 888.567 1165.75 889.317 1166.87C890.067 1168 892.692 1168.56 895.129 1168.19C899.254 1167.44 899.817 1166.12 900.942 1154.85C901.504 1147.91 902.067 1032.23 902.067 897.578V653.072H987.379H1072.69V861.334V1069.6L1077.19 1070.35C1080.38 1070.91 1082.25 1070.35 1083 1068.28C1083.75 1066.59 1084.69 1036.36 1085.25 1000.86L1086.38 936.639H1094.63H1102.69V972.508V1008.19L1107.94 1007.63L1113 1007.06L1113.57 971.757L1113.94 936.639H1126.13H1138.32V970.818C1138.32 1006.69 1139.44 1012.32 1145.25 1008.75C1148.25 1006.87 1148.63 1002.74 1149.19 971.569L1149.57 936.451L1163.25 937.015L1176.75 937.578L1177.32 983.588C1177.5 1008.94 1178.07 1030.35 1178.25 1031.47C1179.19 1033.92 1185.75 1033.92 1187.44 1031.47C1188.19 1030.35 1188.94 1008.75 1188.94 983.024V936.639H1201.13H1213.32V971.193C1213.32 999.55 1213.88 1006.12 1216.13 1008C1218.38 1009.88 1219.5 1009.88 1221.75 1008C1223.25 1006.87 1224.38 1005.18 1224.19 1004.62C1224.19 1003.87 1224.19 988.282 1224.38 969.879L1224.57 936.639H1236.75H1248.94V982.461C1248.94 1007.63 1249.5 1029.6 1250.07 1031.29C1251.19 1034.29 1256.25 1033.35 1258.69 1029.78C1259.44 1028.66 1260.19 1007.25 1260.19 982.085V936.639H1271.44H1282.69L1283.07 988.658L1283.63 1040.86H1288.32H1293L1293.94 989.221L1294.88 937.578L1300.13 937.015L1305.19 936.451L1305.38 983.963C1305.38 1010.07 1305.94 1032.79 1306.69 1034.29C1308.38 1038.05 1312.5 1038.8 1315.69 1035.98C1317.75 1034.29 1318.32 1023.96 1318.32 981.71C1318.32 952.977 1317.75 928.188 1317.19 926.498C1316.07 923.869 1304.25 923.494 1200.94 923.494H1085.82V905.653V887.813H1198.13C1260 887.813 1311.75 887.25 1313.44 886.686C1315.13 886.123 1316.44 884.057 1316.44 882.367C1316.44 875.794 1312.5 874.667 1288.88 874.667H1265.82V802.367V730.067H1308H1350.19V873.165C1350.19 1010.82 1350.75 1026.97 1355.63 1019.64C1356.38 1018.14 1357.88 1017.39 1358.82 1017.77C1359.75 1018.14 1360.69 957.109 1361.07 874.104L1361.44 730.067H1371.75H1382.07V847.437C1382.07 962.742 1382.07 964.808 1378.32 967.062C1376.25 968.376 1374.57 971.569 1374.57 974.198C1374.75 987.156 1389.94 990.724 1397.63 979.644C1400.25 976.076 1400.25 974.761 1398 968.94C1395.57 963.494 1395.19 943.587 1395.19 846.311V730.067H1460.07C1501.13 730.067 1526.07 729.315 1528.5 728.189C1530.38 727.062 1532.07 724.621 1532.07 722.555C1532.07 718.611 1519.13 710.536 1450.5 671.851C1379.07 631.476 1330.5 603.87 1317.94 596.358C1309.32 591.288 1304.25 589.222 1301.63 590.161C1295.63 592.039 1261.32 620.208 1211.44 664.339C1144.88 722.931 1146.57 721.24 1152.57 727.062C1154.82 729.503 1159.88 730.067 1176 730.067H1196.44L1196.07 801.804L1195.5 873.728L1180.13 874.292L1164.57 874.855V865.653C1164.57 854.01 1161.57 845.184 1156.5 842.555C1154.07 841.052 1140.75 840.489 1119.19 840.677L1085.82 841.052V740.583C1085.82 627.344 1087.5 638.048 1069.5 638.048H1059L1060.32 626.03C1062.19 606.687 1068 608.002 978.754 608.002H902.067V549.223C902.067 517.11 901.317 489.504 900.567 488.19C899.254 486.5 884.442 485.936 832.504 486.312L766.129 486.875L765.567 502.274L765.004 517.861H753.941H742.691L744.004 503.964C745.504 485.185 746.066 485.561 704.253 487.063C666.566 488.565 661.878 490.068 658.503 502.274C657.378 506.218 656.441 511.288 656.441 513.542V517.861L586.691 518.237L516.753 518.8L516.191 546.406L515.628 574.199H463.316H410.816L409.878 578.33C409.316 580.772 409.316 596.546 409.691 613.635C410.253 630.725 410.066 669.785 409.503 700.395L408.378 756.358H374.816H341.441V651.194V546.218L348.191 544.903C351.941 544.152 361.878 544.152 370.316 544.903C387.566 546.406 395.816 544.34 395.816 538.894C395.816 537.016 390.566 530.443 384.003 524.246C363.566 504.903 271.691 421.147 270.566 420.772C269.816 420.396 265.878 422.274 261.753 424.528ZM273.566 440.678C277.691 444.246 277.691 444.997 277.691 487.626V531.007H200.441H123.003L137.065 521.805C144.753 516.734 162.191 505.467 175.503 496.828C189.003 488.002 210.941 473.73 224.253 465.091C261.003 441.054 267.378 437.11 268.316 437.11C268.878 437.298 271.128 438.8 273.566 440.678ZM360.753 520.678C365.628 524.622 369.566 528.753 369.566 529.504C369.566 530.255 352.316 531.007 331.128 531.007H292.691V495.138V459.457L322.316 486.312C338.441 501.147 355.691 516.547 360.753 520.678ZM736.691 508.847L736.129 516.922L717.378 517.486C702.566 517.861 698.066 518.612 696.378 521.054C694.503 523.495 693.941 549.41 693.941 635.607V746.968H682.691H671.441V626.969C671.441 560.865 672.003 505.655 672.566 503.964C673.503 501.335 678.191 500.96 705.566 500.96H737.254L736.691 508.847ZM588.941 551.664V572.321H578.628H568.316V551.664V531.007H578.628H588.941V551.664ZM658.316 551.664V572.321H629.253H600.191V551.664V531.007H629.253H658.316V551.664ZM727.691 580.208V629.598L717.378 629.034L707.066 628.283V579.645V531.007H717.378H727.691V580.208ZM791.442 551.664V572.321H784.879H778.317V551.664V531.007H784.879H791.442V551.664ZM813.942 551.664V572.321H808.317H802.692V551.664V531.007H808.317H813.942V551.664ZM847.692 551.664V572.321H837.379H827.067V551.664V531.007H837.379H847.692V551.664ZM321.566 545.842C322.503 547.345 296.628 566.687 293.816 566.687C292.316 566.687 292.316 546.969 294.003 545.467C295.878 543.589 320.441 543.964 321.566 545.842ZM116.44 552.603V559.175H103.315H90.1904V552.603V546.03H103.315H116.44V552.603ZM327.566 598.049C326.253 599.363 296.253 583.213 296.816 581.523C297.191 580.772 304.128 575.701 312.378 570.067L327.378 559.739L327.941 578.518C328.128 588.847 328.128 597.673 327.566 598.049ZM819.192 585.279L847.692 585.466V607.063V628.471L813.004 629.034L778.317 629.598V606.687V583.588L784.504 584.34C787.692 584.903 803.442 585.279 819.192 585.279ZM588.941 607.063V628.659H578.628H568.316V607.063V585.466H578.628H588.941V607.063ZM635.816 607.063V628.659H618.003H600.191V607.063V585.466H618.003H635.816V607.063ZM658.316 607.063V628.659H653.628H648.941V607.063V585.466H653.628H658.316V607.063ZM310.316 605.372L328.316 614.011V630.537V647.062L318.753 643.494C311.441 640.678 308.628 640.302 306.566 641.992C301.691 645.936 303.566 651.006 311.441 654.95C315.566 657.015 318.941 659.081 318.941 659.457C318.941 659.832 313.316 663.776 306.566 668.283C296.441 674.856 294.003 675.794 292.503 673.541C291.003 671.475 290.628 596.734 291.941 596.734C292.128 596.734 300.378 600.678 310.316 605.372ZM1384.88 650.255C1425.19 673.166 1466.63 696.827 1477.32 702.649C1488 708.658 1496.44 713.916 1496.07 714.292C1495.69 714.668 1474.69 715.231 1449.38 715.606L1403.63 716.17L1352.07 681.992C1294.69 644.245 1275.19 630.537 1275.19 628.283C1275.19 627.532 1281.57 621.71 1289.44 615.513C1302 605.748 1304.25 604.621 1307.82 606.499C1309.88 607.626 1344.75 627.344 1384.88 650.255ZM1047.38 627.908C1047.94 631.663 1047.94 635.419 1047 636.358C1046.07 637.297 1013.07 638.236 973.691 638.424L902.067 638.987V629.973V621.147H974.066H1046.07L1047.38 627.908ZM583.691 653.635C583.691 669.973 584.628 673.165 589.878 674.104C595.316 675.231 596.441 672.039 596.441 654.762C596.441 641.241 597.566 639.551 606.378 641.241L611.441 642.18V664.527V686.874H589.878H568.316V663.588V640.49L576.003 640.678L583.878 640.865L583.691 653.635ZM634.691 644.058C634.128 644.997 634.128 652.133 634.878 659.832C636.191 673.541 636.191 673.729 641.066 673.165C645.941 672.414 646.128 672.039 647.066 656.64C648.003 641.053 648.003 640.865 653.253 640.302L658.316 639.739V663.213V686.874H640.503H622.878V664.527V641.992L627.941 641.429C634.128 640.678 636.191 641.429 634.691 644.058ZM815.442 663.776L816.004 686.874H797.254C781.504 686.874 778.504 686.311 777.942 683.869C777.567 682.179 777.567 672.039 777.942 661.335L778.504 641.804H785.067H791.442V657.954V673.916L797.629 673.353L803.629 672.79L804.192 656.264L804.754 639.739L809.817 640.302L814.879 640.865L815.442 663.776ZM847.317 663.964L847.879 686.874H837.942H828.004L828.567 664.903C829.129 650.818 830.067 642.18 831.379 641.429C832.692 640.678 836.629 640.114 840.192 640.49L846.754 640.865L847.317 663.964ZM727.691 664.339V686.874H717.378H707.066V667.344C707.066 656.64 707.629 646.499 708.191 644.809C708.941 642.555 711.941 641.804 718.503 641.804H727.691V664.339ZM1325.63 681.053L1375.13 714.104L1366.88 715.419C1362.38 715.982 1337.82 716.733 1312.32 716.733L1265.82 716.921V679.175V641.429L1271.07 644.809C1273.88 646.499 1298.44 663.024 1325.63 681.053ZM1250.82 681.992V714.48L1213.13 715.982C1192.5 716.733 1175.07 716.921 1174.69 716.358C1173.94 715.794 1248.57 649.692 1250.44 649.316C1250.63 649.316 1250.82 663.963 1250.82 681.992ZM328.316 698.142V724.433H309.378C292.878 724.433 290.628 724.057 291.566 721.428C292.128 719.738 292.691 716.921 292.691 715.043C292.691 712.038 293.816 711.663 299.253 712.602C305.441 713.541 305.816 713.353 305.816 708.658C305.816 705.466 304.503 703.212 302.628 702.649C288.941 698.33 290.441 693.823 309.566 681.804C318.191 676.358 326.066 671.851 326.816 671.851C327.566 671.851 328.316 683.682 328.316 698.142ZM588.941 723.494V746.968H578.628H568.316V723.494V700.02H578.628H588.941V723.494ZM635.816 723.494V746.968H618.941H602.066V723.494V700.02H618.941H635.816V723.494ZM658.316 723.494V746.968H653.066C648.378 746.968 647.816 746.405 648.191 740.771C648.378 737.578 648.566 726.874 648.753 717.297C648.941 700.208 648.941 700.02 653.628 700.02H658.316V723.494ZM727.691 723.494V746.968H717.378H707.066V723.494V700.02H717.378H727.691V723.494ZM810.192 723.494V746.968H794.254H778.317V723.494V700.02H794.254H810.192V723.494ZM847.317 722.93L846.754 746.029H834.567H822.379L821.817 725.56C821.629 714.104 821.817 703.776 822.192 702.461C822.942 700.771 827.067 700.02 835.504 700.02H847.879L847.317 722.93ZM275.066 703.776C276.941 703.776 277.691 706.592 277.691 714.104V724.433H264.566H251.441V714.292C251.441 704.527 251.628 703.963 256.691 703.212C259.503 702.649 264.191 702.649 267.191 703.024C270.191 703.4 273.753 703.776 275.066 703.776ZM1248.57 729.879C1250.25 730.067 1250.82 735.7 1250.82 751.287V772.696L1241.07 769.315C1230.38 765.747 1229.25 766.123 1227.38 773.635C1226.25 778.142 1226.63 778.893 1233.38 780.583C1246.13 784.151 1246.5 785.466 1236.57 791.1C1231.5 794.104 1224.75 797.86 1221.57 799.926C1209.75 806.686 1209.38 806.123 1209.94 779.269L1210.5 755.419H1216.13C1220.82 755.231 1221.94 754.48 1222.32 750.348C1222.88 745.841 1222.13 745.278 1216.69 744.715C1211.07 744.151 1210.5 743.588 1209.94 737.203C1209.57 731.945 1210.13 730.254 1212.75 729.691C1215.57 729.128 1241.07 729.128 1248.57 729.879ZM328.316 746.968V756.358H278.628H228.941V746.968V737.578H278.628H328.316V746.968ZM588.941 780.771V803.306H578.628H568.316V780.771V758.236H578.628H588.941V780.771ZM635.816 780.771V803.306H618.941H602.066V780.771V758.236H618.941H635.816V780.771ZM658.316 780.583C658.316 802.93 658.316 802.93 653.628 803.682L648.941 804.621V781.522V758.236H653.628H658.316V780.583ZM693.941 780.771V803.306H682.691H671.441V780.771V758.236H682.691H693.941V780.771ZM728.066 771.757C728.254 784.527 728.254 795.419 727.879 800.865C727.691 802.555 724.316 803.306 717.378 803.306H707.066V780.771V758.236H717.378H727.691L728.066 771.757ZM810.192 780.771V803.306H794.254H778.317V780.771V758.236H794.254H810.192V780.771ZM847.692 780.771V803.306H834.567H821.442V780.771V758.236H834.567H847.692V780.771ZM1250.82 815.513C1250.82 824.339 1250.44 831.475 1249.69 831.475C1248.19 831.475 1218.75 815.888 1219.5 815.325C1220.63 814.01 1248.19 799.55 1249.5 799.55C1250.25 799.55 1250.82 806.686 1250.82 815.513ZM588.941 839.175V861.522H578.628H568.316V838.423V815.513L578.628 816.076L588.941 816.827V839.175ZM658.316 838.987V861.522H630.191H602.066V838.987V816.452H630.191H658.316V838.987ZM727.691 924.433C727.691 1025.84 727.504 1032.41 724.504 1032.6C722.629 1032.79 718.128 1032.98 714.566 1033.16L708.004 1033.35L707.441 924.808L707.066 816.452H717.378H727.691V924.433ZM810.192 838.987V861.522H794.254H778.317V838.987V816.452H794.254H810.192V838.987ZM847.692 838.987V861.522H834.567H821.442V838.987V816.452H834.567H847.692V838.987ZM1228.5 835.231C1237.13 839.362 1244.82 843.494 1245.75 844.433C1246.88 845.56 1244.44 848.001 1239.94 850.818C1235.82 853.447 1230.75 857.954 1228.69 860.583C1225.5 864.714 1223.44 865.466 1217.63 864.902L1210.5 864.339L1209.94 845.935C1209.57 835.231 1210.13 827.719 1211.25 827.719C1212.19 827.719 1220.07 831.099 1228.5 835.231ZM1145.82 853.822C1149.94 854.949 1150.5 856.264 1151.07 864.902L1151.63 874.667H1118.82H1085.82V864.527C1085.82 854.761 1086 854.198 1091.07 853.447C1099.5 852.132 1140.75 852.508 1145.82 853.822ZM1250.82 867.156V874.667H1241.25C1236 874.667 1232.07 873.916 1232.44 872.789C1232.82 871.475 1247.82 860.583 1250.44 859.832C1250.63 859.644 1250.82 863.024 1250.82 867.156ZM588.941 896.451V917.86H578.628H568.316V895.7V873.728L578.628 874.292L588.941 875.043V896.451ZM847.317 896.264L847.879 917.86H813.004H778.317V895.7V873.728L812.442 874.104L846.754 874.48L847.317 896.264ZM658.316 896.264V917.86L651.378 918.048C637.691 918.235 601.316 917.672 600.753 917.296C600.566 916.921 600.941 907.343 601.503 895.7L602.628 874.667H630.378H658.316V896.264ZM408.941 899.081V921.804V876.545V899.081ZM789.942 947.719L790.504 963.869L796.692 964.433L802.692 964.996V948.282C802.692 932.696 803.067 931.381 806.629 930.442C815.067 928.188 815.817 930.067 815.817 953.541C815.817 978.893 816.379 978.142 798.942 977.015C793.317 976.639 786.379 976.264 783.567 976.264L778.317 976.076V953.729C778.317 930.63 778.879 928.752 786.192 930.63C788.817 931.193 789.567 934.198 789.942 947.719ZM611.441 953.541V976.076H589.878H568.316V953.541V931.005H589.878H611.441V953.541ZM635.816 947.907V964.808H641.441H647.066L647.253 951.099C647.628 931.569 647.441 931.944 653.253 931.381L658.316 930.818V953.353V976.076H640.503H622.503L623.066 953.541L623.628 931.005H629.816H635.816V947.907ZM847.692 953.541V975.888L841.317 977.015C837.754 977.766 833.067 977.766 831.004 977.015C827.254 975.888 827.067 974.574 827.067 953.353V931.005H837.379H847.692V953.541ZM408.941 955.606V978.329V932.883V955.606ZM588.941 1010.63C588.941 1034.48 588.941 1034.29 575.628 1034.29H568.316V1011.76V989.221H578.628H588.941V1010.63ZM658.316 1010.63C658.316 1036.17 660.753 1034.29 626.253 1034.29H602.628L601.316 1027.16C600.753 1023.4 600.191 1013.26 600.191 1004.62V989.221H629.253H658.316V1010.63ZM791.442 1011.76V1034.29H785.067H778.504L777.942 1011.76L777.379 989.221H784.504H791.442V1011.76ZM847.692 1010.63V1031.85L841.879 1033.16C838.692 1033.73 828.942 1034.29 820.504 1034.29H805.129L803.817 1025.65C803.254 1020.77 802.692 1010.63 802.692 1003.12V989.221H825.192H847.692V1010.63ZM588.941 1067.91C588.941 1093.07 588.378 1094.01 574.878 1091.38L568.316 1090.25V1067.91V1045.56H578.628H588.941V1067.91ZM635.816 1067.91C635.816 1093.45 637.316 1091.57 615.941 1092.32L602.441 1092.7L601.878 1079.93C601.503 1072.98 601.316 1062.27 601.691 1056.26L602.441 1045.56H619.128H635.816V1067.91ZM658.316 1069.03V1092.51H653.628C651.003 1092.51 648.941 1091.38 648.753 1090.07C647.441 1070.16 647.253 1063.78 648.191 1055.32C649.128 1046.5 649.691 1045.56 653.816 1045.56H658.316V1069.03ZM791.817 1061.9C792.379 1078.42 792.379 1078.42 797.629 1078.99L802.692 1079.55L802.879 1065.84C803.254 1046.31 803.067 1046.5 808.504 1045.93L813.379 1045.37L814.504 1067.53C815.442 1083.87 815.067 1089.88 813.379 1091.01C812.254 1091.76 803.817 1092.51 794.817 1092.51H778.317V1069.03V1045.56H784.879H791.254L791.817 1061.9ZM847.692 1068.09V1090.44L841.317 1091.57C837.754 1092.32 833.067 1092.32 831.004 1091.57C827.254 1090.44 827.067 1089.13 827.067 1067.91V1045.56H837.379H847.692V1068.09Z" fill="#0A0A0A"/>
<path d="M584.066 954.478C582.004 959.736 584.816 962.929 591.754 962.929C597.754 962.929 598.316 962.553 598.316 957.295C598.316 952.037 597.754 951.661 591.754 951.661C587.629 951.661 584.629 952.788 584.066 954.478Z" fill="#0A0A0A"/>
<path d="M1104.19 452.322C1102.13 453.448 1100.82 456.453 1100.82 459.833C1100.82 464.152 1099.5 466.218 1095.38 468.66C1082.82 475.796 1080.19 491.195 1089.75 500.772C1092.94 503.965 1096.69 506.594 1098.19 506.594C1099.88 506.594 1100.82 508.659 1100.82 512.791C1100.82 521.054 1104.57 525.936 1110.38 524.997C1114.32 524.434 1114.88 523.307 1115.44 516.359C1116 509.786 1116.94 507.908 1121.44 505.655C1129.13 501.711 1132.69 495.702 1132.69 486.688C1132.69 478.049 1128.94 472.228 1121.44 468.472C1118.25 466.969 1116.57 464.34 1116.19 460.584C1115.82 457.392 1114.13 453.824 1112.44 452.509C1108.88 449.88 1108.32 449.88 1104.19 452.322ZM1114.69 480.49C1117.32 482.556 1119.57 485.561 1119.57 486.875C1119.57 490.256 1112.25 497.204 1108.5 497.204C1105.13 497.204 1097.07 489.88 1097.07 486.688C1097.07 484.246 1105.69 476.547 1108.32 476.547C1109.07 476.547 1111.88 478.237 1114.69 480.49Z" fill="#0A0A0A"/>
<path d="M967.691 459.644C963.191 464.151 963.004 467.719 966.941 471.663C972.566 477.485 982.691 473.353 982.691 465.278C982.691 462.086 976.316 455.889 972.941 455.889C972.004 455.889 969.754 457.579 967.691 459.644Z" fill="#0A0A0A"/>
<path d="M1374.57 496.262C1372.88 501.332 1371 503.21 1366.88 504.149C1363.88 504.713 1360.5 506.215 1359.38 507.717C1356.38 511.473 1359.19 517.858 1363.88 517.858C1369.13 517.858 1371.19 519.361 1374.57 526.309C1377.19 531.191 1378.69 531.943 1386.19 532.506C1394.63 533.069 1395.19 532.694 1399.69 525.558C1403.07 520.299 1405.88 517.858 1409.63 517.483C1414.13 517.107 1414.88 515.98 1414.88 511.285C1414.88 506.403 1413.94 505.652 1407.94 504.149C1402.13 502.835 1400.63 501.332 1399.32 496.638C1397.82 490.816 1397.25 490.628 1387.32 490.065L1376.82 489.501L1374.57 496.262ZM1391.07 510.91C1391.82 514.666 1386.38 517.295 1383.57 514.478C1380.75 511.661 1383.38 506.215 1387.13 506.966C1389 507.342 1390.69 509.032 1391.07 510.91Z" fill="#0A0A0A"/>
<path d="M1215.19 508.47C1214.07 510.723 1213.69 514.104 1214.25 515.982C1215.57 520.489 1224 522.93 1228.13 520.301C1231.88 517.86 1233 510.911 1230.19 507.343C1226.63 503.399 1217.63 503.963 1215.19 508.47Z" fill="#0A0A0A"/>
<path d="M1140.75 573.634C1140.75 574.948 1141.88 576.075 1143.38 576.075C1144.69 576.075 1145.82 574.948 1145.82 573.634C1145.82 572.132 1144.69 571.005 1143.38 571.005C1141.88 571.005 1140.75 572.132 1140.75 573.634Z" fill="#0A0A0A"/>
<path d="M97.3154 743.399C92.0654 746.403 93.0029 755.981 98.6279 758.61C107.253 762.554 114.753 751.098 107.815 744.338C104.44 740.957 101.815 740.582 97.3154 743.399Z" fill="#0A0A0A"/>
<path d="M69.9401 849.502C62.6276 854.572 65.6276 865.276 74.2526 865.276C82.3151 865.276 85.6901 855.323 79.6901 849.502C76.1276 845.746 75.1901 845.746 69.9401 849.502Z" fill="#0A0A0A"/>
<path d="M122.066 1052.51C117.941 1054.01 110.628 1060.96 108.753 1065.28C107.816 1067.34 105.941 1070.54 104.816 1072.41C102.753 1075.23 102.941 1076.17 105.753 1078.24C107.441 1079.55 108.941 1082.37 108.941 1084.24C108.941 1089.13 115.691 1102.27 119.253 1104.34C123.941 1106.78 122.441 1109.03 113.816 1112.98C98.4405 1119.74 98.8155 1118.42 97.503 1192.98C96.753 1237.67 95.253 1265.84 93.1905 1281.24C88.503 1315.79 90.9405 1312.23 71.4405 1312.23C56.253 1312.23 54.5655 1312.6 52.503 1316.17C50.8155 1319.36 51.003 1320.86 53.4405 1323.31C56.253 1326.12 111.941 1326.31 758.628 1326.69L1460.63 1327.25L1463.44 1323.12C1465.5 1320.3 1465.69 1318.23 1464.38 1315.61C1462.88 1312.79 1460.25 1312.23 1448.63 1312.23H1434.57V1223.21C1434.57 1164.81 1433.82 1132.32 1432.5 1128.75C1429.69 1121.24 1421.82 1113.54 1415.44 1112.23C1407.75 1110.54 1406.82 1106.22 1413 1101.15C1416.94 1097.95 1418.25 1094.95 1419 1088C1419.75 1081.24 1421.07 1078.61 1423.5 1078.05C1428.19 1076.73 1428 1075.42 1421.25 1065.28C1414.13 1054.76 1405.69 1050.25 1396.5 1051.94C1390.32 1053.07 1388.07 1054.95 1377.38 1066.78C1372.69 1072.04 1371.19 1077.48 1374.38 1077.48C1375.13 1077.48 1376.44 1081.43 1377 1086.31C1377.75 1093.07 1379.25 1096.45 1383.57 1100.21C1386.57 1103.02 1390.13 1105.47 1391.25 1105.84C1392.94 1106.4 1392.75 1108.47 1390.69 1113.35C1389.19 1116.92 1386.57 1127.44 1385.07 1136.83C1382.44 1152.23 1381.69 1153.92 1375.13 1159.74C1371.19 1162.93 1362 1168.75 1354.88 1172.32C1344 1177.77 1339.69 1178.89 1329.94 1178.89C1322.25 1178.89 1316.63 1177.77 1313.63 1175.89C1311 1174.2 1303.13 1172.51 1294.13 1171.94C1280.44 1171.01 1279.13 1171.19 1277.25 1174.95C1275.94 1177.01 1274.07 1178.89 1272.94 1178.89C1269.94 1178.89 1272.19 1152.98 1275.75 1146.22C1278.75 1140.58 1278.38 1136.64 1274.25 1135.14C1272.94 1134.57 1266.19 1126.87 1259.44 1118.24C1249.13 1104.9 1247.07 1101.15 1247.07 1095.14C1246.88 1086.31 1236.38 1070.72 1229.25 1068.85C1221.19 1066.78 1211.82 1069.6 1207.69 1075.42C1205.63 1078.42 1203.94 1081.8 1203.94 1082.93C1203.94 1084.06 1202.82 1085 1201.32 1085C1197.57 1085 1196.82 1088.75 1196.07 1109.41L1195.5 1127.25L1218.75 1127.81C1234.32 1128.19 1242.75 1127.63 1244.44 1126.12C1245.94 1124.81 1247.44 1124.24 1247.63 1124.62C1247.82 1125 1251 1128.75 1254.75 1132.88L1261.32 1140.58L1259.44 1159.17L1257.38 1177.95L1249.88 1178.52C1245 1178.89 1241.82 1178.33 1240.5 1176.26C1239.38 1174.76 1233.94 1171.76 1228.69 1169.69C1213.69 1163.68 1197.57 1155.23 1191.19 1149.78C1187.82 1146.97 1183.69 1140.58 1181.44 1134.2C1176.75 1121.62 1173.57 1117.86 1164.19 1112.98C1160.25 1110.91 1157.07 1108.66 1157.07 1107.91C1157.07 1107.16 1159.32 1103.96 1161.94 1100.96C1168.32 1093.63 1170.19 1088.38 1170.19 1078.42C1170.19 1057.58 1143.57 1047.81 1129.13 1063.21C1123.5 1069.22 1121.07 1080.49 1123.5 1088.19C1125.38 1094.01 1133.44 1102.46 1138.69 1104.15C1140.75 1104.9 1140.57 1106.78 1138.5 1114.29C1137.19 1119.36 1135.32 1127.06 1134.38 1131.38C1131 1148.09 1121.44 1158.24 1097.63 1170.25C1077.94 1180.02 1069.13 1179.64 1047.75 1168.19C1027.13 1157.3 1017.75 1147.34 1013.63 1132.51C1011.94 1126.5 1009.32 1118.24 1007.82 1114.1C1005.19 1106.59 1005.19 1106.59 1010.63 1101.9C1016.63 1097.01 1020.19 1089.5 1020.19 1082.18C1020.19 1079.93 1021.5 1077.48 1023 1076.73C1025.25 1075.98 1024.5 1073.92 1019.07 1066.78C1003.69 1046.5 989.628 1046.69 973.691 1067.72C968.628 1074.67 968.441 1076.92 973.316 1078.42C975.941 1079.36 977.066 1081.24 977.066 1085.56C977.066 1092.13 983.066 1103.21 987.378 1104.9C992.066 1106.78 990.566 1108.85 981.753 1112.04C976.878 1113.92 971.628 1117.86 969.191 1121.24C964.878 1127.06 964.878 1128.56 963.941 1192.04L963.003 1256.83L806.628 1257.01C642.191 1257.2 646.316 1257.01 648.378 1265.47C649.316 1268.85 654.378 1269.03 806.253 1269.41L963.003 1269.97L963.566 1291.19L964.128 1312.23L806.066 1311.85L648.003 1311.29L633.753 1268.09C625.878 1244.24 619.691 1224.34 620.253 1223.4C620.628 1222.65 624.753 1222.08 629.253 1222.08C635.816 1222.08 637.691 1221.33 638.628 1218.33C640.878 1211.57 636.191 1208.56 624.753 1209.32L614.441 1209.88L610.503 1196.73C607.128 1185.09 606.003 1183.59 602.066 1183.59C598.128 1183.59 596.816 1185.28 592.878 1196.17L588.191 1208.94L528.003 1209.32L468.003 1209.88V1215.51V1221.15L526.128 1222.27C558.191 1222.84 584.253 1223.4 584.441 1223.59C584.441 1223.78 582.191 1230.91 579.378 1239.36C575.066 1252.32 561.378 1296.45 557.816 1308.85C557.253 1310.72 555.191 1312.23 553.316 1312.23C549.941 1312.23 549.566 1310.35 549.191 1284.43L548.628 1256.83L505.128 1256.26L461.441 1255.89L461.253 1273.16C461.066 1282.74 461.253 1292.88 461.441 1295.89C461.628 1298.7 461.253 1303.59 460.503 1306.59L459.191 1312.23H427.691H396.191L394.878 1275.98C394.316 1256.26 393.941 1233.16 394.316 1224.9L394.878 1209.88L405.941 1209.69C412.878 1209.5 417.378 1208.56 418.503 1206.87C423.378 1199.17 417.378 1193.92 404.253 1193.92H394.128L393.566 1160.49C393.003 1129.69 392.628 1126.87 388.878 1121.43C386.441 1118.24 381.753 1114.1 378.003 1112.41C374.441 1110.72 371.441 1108.66 371.441 1107.91C371.441 1107.16 374.066 1102.84 377.066 1098.33C384.003 1088 385.691 1079.36 382.503 1070.54C378.753 1060.77 371.253 1055.89 360.191 1055.89C352.691 1055.89 350.066 1056.83 345.378 1061.33C337.316 1069.03 334.878 1077.67 337.691 1087.81C340.128 1096.83 343.503 1100.58 351.191 1103.59L356.066 1105.47L353.441 1114.48C351.941 1119.36 350.066 1131.01 349.503 1140.4L348.378 1157.3L338.816 1166.69C333.566 1171.94 324.378 1179.08 318.378 1182.46C312.566 1185.84 307.128 1189.6 306.378 1191.1C304.128 1194.85 287.253 1195.61 285.941 1192.04C285.566 1190.54 280.316 1186.22 274.503 1182.65C268.878 1179.08 261.003 1172.51 257.253 1168.38C250.691 1160.68 250.503 1159.93 248.441 1138.33C247.316 1125.93 245.816 1113.73 245.066 1111.1C243.753 1106.78 244.503 1105.47 249.378 1102.65C255.753 1098.89 260.816 1089.88 260.816 1082.37C260.816 1079.74 261.753 1077.48 262.691 1077.48C266.816 1077.48 264.003 1072.04 254.628 1061.9C246.753 1053.45 243.566 1051.19 239.066 1051.19C229.878 1051.19 221.441 1054.95 218.628 1060.4C217.316 1063.21 214.691 1066.59 213.191 1067.91C209.441 1071.1 209.253 1077.3 212.816 1078.61C214.316 1079.17 216.003 1083.31 216.753 1087.81C217.503 1093.45 219.753 1097.95 223.316 1101.71C229.316 1107.72 229.316 1107.91 217.316 1113.92C206.066 1119.55 204.566 1125 204.566 1161.8V1193.92H196.316C189.941 1193.92 187.691 1193.16 186.941 1190.54C186.378 1188.85 179.816 1183.59 172.503 1178.89C165.191 1174.2 156.378 1167.44 153.003 1163.68C147.378 1157.48 146.816 1155.42 145.503 1141.15C144.753 1132.51 142.691 1120.86 140.816 1115.42L137.628 1105.47L143.066 1102.65C148.878 1099.64 153.941 1090.25 153.941 1082.18C153.941 1079.55 154.878 1077.48 155.816 1077.48C159.378 1077.48 157.691 1073.54 150.753 1065.09C140.628 1052.88 131.628 1048.94 122.066 1052.51ZM244.878 1085C244.878 1088.94 243.941 1089.88 238.878 1090.25C234.378 1090.63 232.691 1090.07 231.753 1087.06C230.066 1081.43 232.316 1078.99 238.878 1079.74C243.941 1080.11 244.878 1081.05 244.878 1085ZM1004.25 1085C1004.25 1088.75 1003.13 1089.88 998.816 1090.25C991.128 1091.19 986.441 1082.55 993.566 1080.68C1000.5 1078.61 1004.25 1080.11 1004.25 1085ZM1227.94 1081.62C1231.88 1085.56 1230.38 1086.87 1222.69 1086.87C1218.57 1086.87 1215.19 1086.12 1215.19 1085.37C1215.19 1082.74 1219.5 1079.36 1222.69 1079.36C1224.38 1079.36 1226.63 1080.3 1227.94 1081.62ZM138.566 1085.18C137.628 1091.76 132.378 1094.01 127.878 1089.88C121.691 1084.24 123.003 1081.24 131.628 1081.24C138.378 1081.24 139.128 1081.8 138.566 1085.18ZM1406.44 1083.49C1406.44 1086.87 1400.63 1092.51 1396.88 1092.51C1393.5 1092.51 1389.57 1087.44 1389.57 1083.31C1389.57 1082.18 1393.32 1081.24 1398 1081.24C1403.25 1081.24 1406.44 1081.99 1406.44 1083.49ZM1233.94 1108.47V1116.92H1220.82H1207.69V1111.47C1207.69 1100.96 1209 1100.02 1221.94 1100.02H1233.94V1108.47ZM1199.25 1173.63L1208.63 1177.95L1197.57 1178.52C1183.5 1179.27 1181.44 1178.33 1181.44 1171.76C1181.44 1164.81 1183.13 1163.12 1187.07 1166.69C1188.57 1168.19 1194.19 1171.38 1199.25 1173.63ZM1028.82 1178.33C1028.25 1178.89 1025.07 1176.64 1021.69 1173.26L1015.5 1167.25L1022.63 1172.32C1026.57 1175.14 1029.19 1177.95 1028.82 1178.33ZM1134.57 1172.32C1134.57 1177.39 1129.69 1179.64 1120.32 1178.52C1114.88 1177.95 1114.88 1177.95 1123.32 1173.07C1134 1166.69 1134.57 1166.69 1134.57 1172.32ZM348.941 1187.34V1193.92H339.378H329.816L338.816 1187.53C343.878 1183.96 348.191 1180.96 348.566 1180.96C348.753 1180.77 348.941 1183.78 348.941 1187.34ZM157.691 1187.53C163.878 1191.66 164.628 1192.98 162.941 1195.61C159.941 1200.49 162.566 1208.38 167.441 1209.69C169.878 1210.25 179.066 1210.25 188.066 1209.5L204.566 1208.38V1260.39V1312.23H176.628C149.253 1312.23 148.691 1312.23 147.566 1307.91C145.503 1300.39 146.253 1182.65 148.316 1182.65C149.441 1182.65 153.566 1184.9 157.691 1187.53ZM251.816 1184.15C252.191 1184.9 254.628 1187.34 257.441 1189.6L262.691 1193.54L256.128 1194.29C248.253 1195.23 247.691 1194.85 247.691 1187.91C247.691 1183.02 250.316 1180.58 251.816 1184.15ZM1029.57 1187.34C1029.57 1194.85 1034.25 1204.06 1039.5 1207.62C1042.32 1209.5 1048.13 1210.82 1053 1210.82C1059 1210.82 1061.44 1211.57 1061.44 1213.45C1061.44 1214.95 1058.25 1226.97 1054.13 1240.3C1050.19 1253.45 1043.63 1275.04 1039.88 1288.19L1032.75 1312.23H1023.75H1014.57V1291.57C1014.57 1276.54 1015.32 1269.22 1017.38 1265.09C1020 1260.21 1020 1259.46 1017.38 1258.52C1014.94 1257.58 1014.57 1252.13 1014.57 1222.08V1186.97L1020.75 1184.9C1029.38 1182.09 1029.57 1182.27 1029.57 1187.34ZM1383.57 1248.75L1383.94 1312.23H1366.32H1348.69L1345.88 1304.15C1341.19 1291.57 1335.19 1272.23 1335.19 1270.54C1335.19 1269.78 1339.32 1269.03 1344.38 1269.03C1356.57 1269.03 1359.57 1267.72 1359.57 1262.27C1359.57 1256.83 1353.75 1254.95 1341.75 1256.45C1336.5 1257.01 1332.75 1256.45 1331.44 1255.14C1330.5 1253.82 1326.38 1243.31 1322.44 1231.85L1314.94 1210.82H1330.5C1344.57 1210.82 1346.44 1210.44 1353.57 1205.18C1357.88 1202.18 1363.13 1196.17 1365.19 1192.04C1368.94 1184.9 1369.69 1184.34 1376.07 1184.9L1383 1185.47L1383.57 1248.75ZM1342.69 1193.16C1351.13 1196.55 1326.94 1197.3 1212 1197.48C1093.13 1197.67 1074.38 1196.92 1077 1192.6C1078.13 1190.91 1338.57 1191.47 1342.69 1193.16ZM1064.07 1194.85C1063.32 1196.73 1060.32 1197.67 1054.69 1197.67C1048.69 1197.67 1046.44 1196.92 1046.44 1194.85C1046.44 1192.79 1048.69 1192.04 1055.82 1192.04C1063.32 1192.04 1064.82 1192.6 1064.07 1194.85ZM348.941 1211.76C348.941 1213.26 348.191 1218.52 347.253 1223.4C346.316 1228.28 342.753 1245.93 339.566 1262.46C336.378 1278.99 332.816 1297.01 331.878 1302.46L329.816 1312.23L299.628 1311.85L269.253 1311.29L259.503 1264.34C254.253 1238.42 249.753 1215.51 249.753 1213.26L249.566 1209.13H299.253C340.878 1209.13 348.941 1209.5 348.941 1211.76ZM1107 1214.01C1107.57 1215.89 1111.13 1225.28 1114.69 1235.04C1118.44 1244.62 1121.44 1253.63 1121.44 1254.76C1121.44 1256.08 1112.44 1257.01 1093.32 1257.39C1068.57 1257.77 1065.19 1257.39 1065.19 1254.76C1065.19 1251.94 1076.07 1215.32 1077.75 1212.13C1078.13 1211.38 1084.69 1210.82 1092.19 1210.82C1103.63 1210.82 1106.25 1211.38 1107 1214.01ZM1139.07 1216.83C1140.38 1225.28 1143.75 1273.54 1143 1274.29C1142.63 1274.67 1141.5 1271.29 1140.57 1266.78C1139.44 1262.27 1135.32 1249.88 1131.19 1238.99C1119.57 1208.38 1119.75 1210.82 1129.69 1210.82C1137.75 1210.82 1138.13 1211.01 1139.07 1216.83ZM1275.94 1216.83C1273.69 1227.91 1263 1256.83 1261.69 1256.26C1260.75 1256.08 1242 1255.89 1219.88 1255.89H1179.57V1243.12C1179.57 1236.17 1180.13 1226.03 1180.69 1220.58L1182 1210.82H1229.63H1277.44L1275.94 1216.83ZM1307.63 1230.91C1311.57 1242.18 1314.57 1252.32 1314.57 1253.45C1314.57 1255.32 1309.69 1255.89 1296.57 1255.89C1278.94 1255.89 1278.75 1255.89 1279.88 1251.57C1280.63 1249.31 1283.82 1239.17 1287 1229.03C1291.88 1213.82 1293.57 1210.82 1296.75 1210.82C1299.94 1210.82 1301.82 1214.01 1307.63 1230.91ZM1412.82 1240.3C1413.38 1254.57 1414.5 1276.54 1415.07 1289.13L1416.19 1312.23H1410H1404L1405.32 1263.96C1406.07 1237.48 1407 1215.14 1407.57 1214.2C1410.38 1209.69 1411.88 1217.01 1412.82 1240.3ZM992.816 1231.85C993.378 1241.24 993.941 1263.21 993.941 1280.68V1312.23H989.253H984.566L984.753 1264.53C984.753 1238.42 985.316 1216.45 985.878 1215.7C989.816 1211.76 991.503 1215.7 992.816 1231.85ZM126.753 1280.68L128.066 1312.23H117.378C106.691 1312.23 106.691 1312.23 107.628 1306.97C108.191 1304.15 111.753 1282.55 115.878 1259.08L123.003 1216.26L124.128 1232.79C124.878 1241.8 126.003 1263.4 126.753 1280.68ZM608.628 1238.99C611.253 1246.5 613.316 1253.45 613.316 1254.39C613.316 1255.14 608.253 1255.89 602.066 1255.89C589.503 1255.89 589.128 1255.51 592.878 1241.8C595.878 1230.54 600.566 1221.71 602.253 1223.4C603.191 1224.34 606.003 1231.29 608.628 1238.99ZM372.378 1268.09C373.878 1284.62 375.753 1301.33 376.316 1305.09L377.441 1312.23H363.191C351.378 1312.23 348.941 1311.66 348.941 1309.22C348.941 1306.03 365.066 1240.3 367.128 1235.23C368.628 1231.29 368.816 1232.41 372.378 1268.09ZM241.878 1274.29C247.128 1294.01 251.441 1310.72 251.441 1311.29C251.441 1311.85 245.066 1312.23 237.378 1312.23C225.191 1312.23 223.316 1311.85 223.316 1308.85C223.316 1303.02 229.128 1243.87 230.253 1238.99C230.816 1236.36 231.566 1235.04 231.941 1236.17C232.128 1237.11 236.628 1254.39 241.878 1274.29ZM617.816 1266.78C620.253 1271.47 632.066 1308.28 632.066 1311.1C632.066 1311.66 618.566 1312.23 602.066 1312.23C585.566 1312.23 572.066 1312.04 572.066 1311.66C572.066 1309.78 580.316 1282.93 583.503 1274.29L587.441 1263.59L597.003 1263.02C602.441 1262.65 608.628 1262.27 610.878 1262.08C613.878 1261.71 615.941 1263.02 617.816 1266.78ZM1128 1272.23C1131.57 1281.05 1140.19 1307.53 1140.19 1309.78C1140.19 1311.66 1131 1312.23 1094.25 1312.23C1066.32 1312.23 1048.32 1311.47 1048.32 1310.35C1048.32 1306.78 1058.25 1273.73 1060.13 1271.29C1061.44 1269.6 1070.63 1269.03 1094.25 1269.03C1123.32 1269.03 1126.88 1269.41 1128 1272.23ZM1258.32 1271.47C1258.32 1272.79 1255.5 1282.37 1252.13 1292.51L1245.75 1311.29L1210.88 1311.85L1175.82 1312.23L1176.94 1293.07C1177.5 1282.37 1178.25 1272.6 1178.82 1271.29C1179.75 1267.91 1258.32 1267.91 1258.32 1271.47ZM1325.63 1288.19C1329.19 1298.89 1332.38 1308.66 1332.75 1309.78C1333.5 1311.66 1325.82 1312.23 1297.88 1312.23C1269.94 1312.23 1262.07 1311.66 1262.07 1309.78C1262.07 1304.34 1273.5 1271.1 1275.75 1270.35C1276.88 1269.78 1287.38 1269.22 1298.63 1269.22L1319.44 1269.03L1325.63 1288.19ZM536.066 1273.16C535.316 1275.04 527.066 1275.79 504.941 1276.17C478.691 1276.54 474.566 1276.17 474.566 1273.73C474.566 1271.29 479.066 1270.91 505.691 1270.91C529.691 1270.91 536.628 1271.47 536.066 1273.16ZM536.441 1301.9V1312.23H505.503H474.566V1301.9V1291.57H505.503H536.441V1301.9Z" fill="#0A0A0A"/>
<path d="M285.379 1114.29C280.316 1118.42 279.566 1120.49 279.566 1128C279.566 1135.51 280.504 1137.95 285.191 1142.46C289.129 1146.21 290.816 1149.78 290.816 1154.1C290.816 1162.18 293.816 1167.62 298.129 1167.62C301.879 1167.62 305.816 1160.49 305.816 1153.73C305.816 1151.29 307.504 1147.9 309.754 1145.84C314.629 1141.33 318.941 1133.26 318.941 1128.37C318.941 1112.04 298.316 1103.4 285.379 1114.29ZM303.004 1128.19C303.004 1133.63 295.879 1135.89 294.004 1131.19C292.129 1126.31 294.754 1122.36 299.066 1122.93C301.879 1123.3 303.004 1124.81 303.004 1128.19Z" fill="#0A0A0A"/>
<path d="M2.066 1316.17C-1.684 1323.12 2.6285 1325.37 20.066 1325.37C33.566 1325.37 35.6285 1325 36.7535 1321.8C39.191 1313.92 36.3785 1312.23 19.691 1312.23C5.816 1312.23 3.7535 1312.6 2.066 1316.17Z" fill="#0A0A0A"/>
<path d="M1480.88 1313.35C1478.63 1315.61 1479.38 1323.12 1482 1324.81C1484.44 1326.31 1525.32 1325.94 1530.75 1324.25C1533.19 1323.49 1533.94 1321.62 1533.57 1318.24L1533 1313.17L1507.5 1312.6C1493.63 1312.41 1481.63 1312.79 1480.88 1313.35Z" fill="#0A0A0A"/>
</g>
</svg>
