<svg width="586" height="586" viewBox="0 0 586 586" fill="none" xmlns="http://www.w3.org/2000/svg">
<g clip-path="url(#clip0_1365_5316)">
<circle cx="293" cy="293" r="293" fill="#2D2F2F"/>
<path opacity="0.19" d="M327.173 277.292C340.494 272.166 354.795 263.542 365.338 254.267C394.022 229.045 404.32 193.49 394.922 151.834C393.86 146.79 391.815 139.55 390.508 135.563C389.119 131.658 388.056 128.241 388.056 128.078C388.056 127.915 390.917 130.762 394.35 134.505C424.251 166.154 467.468 183.965 510.15 168.513C523.553 163.713 539.734 154.194 549.868 145.163L554.363 141.176L552.892 136.702C549.132 124.742 538.671 107.088 528.864 96.0232C503.939 67.8726 469.535 57.7026 428.101 66.0827C421.237 67.4658 408.406 71.1247 402.767 73.24C402.113 73.4841 408.678 74.9514 411.021 64.3739C413.364 53.7964 372.906 -16.2863 345.643 53.7964C318.379 123.879 348.012 60.5481 348.012 60.5481L340.984 53.1462C325.212 36.4674 306.825 24.1823 288.438 17.9989C268.252 11.1647 245.696 11.5704 225.102 18.9742C211.699 23.7744 195.764 33.2119 185.386 42.3242L180.891 46.3113L182.362 50.7846C187.592 67.3007 201.893 88.699 215.785 100.822C243.816 125.311 282.798 130.926 325.62 116.525C329.543 115.142 332.894 114.083 333.139 114.083C333.302 114.083 330.279 117.094 326.356 120.674C305.844 140.037 292.279 162.982 287.947 185.925C287.294 189.505 286.721 196.907 286.721 202.521C286.721 218.956 290.48 233.764 298.734 249.629C305.272 262.484 317.939 279.326 320.881 279.245C321.616 279.164 324.476 278.349 327.173 277.292Z" fill="#666562"/>
<path d="M43.04 274.714C35.588 274.714 30.404 269.242 30.404 261.754V261.574C30.404 254.122 35.66 248.614 42.968 248.614H43.004C47.36 248.614 50.852 250.666 53.264 254.086L49.124 257.182C47.648 254.878 45.812 253.654 43.292 253.654C38.972 253.654 36.236 256.894 36.236 261.574V261.754C36.236 266.398 38.972 269.602 43.22 269.602C45.812 269.602 47.9 268.378 49.268 266.146L53.336 269.278C51.212 272.59 47.468 274.714 43.076 274.714H43.04ZM56.4433 274.246V248.326H61.8073V257.794C63.4993 256.138 65.8033 255.13 68.3953 255.13C72.6073 255.13 75.0193 257.794 75.0193 262.33V274.246H69.6553V263.482C69.6553 260.89 68.5753 259.63 66.2713 259.63C63.4633 259.63 61.8073 261.25 61.8073 263.95V274.246H56.4433ZM88.7201 274.642C82.8521 274.642 78.5681 270.646 78.5681 265.246V264.526C78.5681 259.126 82.8521 255.13 88.7201 255.13H89.0441C94.9121 255.13 99.1961 259.126 99.1961 264.526V265.246C99.1961 270.646 94.9121 274.642 89.0441 274.642H88.7201ZM88.7561 270.646H89.0081C91.6721 270.646 93.6161 268.342 93.6161 265.066V264.706C93.6161 261.43 91.6721 259.126 89.0081 259.126H88.7561C86.0921 259.126 84.1121 261.43 84.1121 264.706V265.066C84.1121 268.342 86.0921 270.646 88.7561 270.646ZM112.169 274.642C106.301 274.642 102.017 270.646 102.017 265.246V264.526C102.017 259.126 106.301 255.13 112.169 255.13H112.493C118.361 255.13 122.645 259.126 122.645 264.526V265.246C122.645 270.646 118.361 274.642 112.493 274.642H112.169ZM112.205 270.646H112.457C115.121 270.646 117.065 268.342 117.065 265.066V264.706C117.065 261.43 115.121 259.126 112.457 259.126H112.205C109.541 259.126 107.561 261.43 107.561 264.706V265.066C107.561 268.342 109.541 270.646 112.205 270.646ZM133.611 274.678C130.119 274.678 126.987 273.778 124.431 272.05L126.951 268.198C128.571 269.53 131.271 270.466 133.503 270.466C135.231 270.466 136.203 269.854 136.203 268.774C136.203 267.19 134.115 267.334 130.047 265.93C127.599 265.174 125.295 263.986 125.295 260.89C125.295 257.362 128.175 255.094 132.711 255.094C135.447 255.094 138.363 255.958 140.415 257.506L137.895 261.178C136.563 260.026 134.295 259.27 132.387 259.27C130.767 259.27 130.047 259.882 130.047 260.782C130.047 261.97 131.703 262.33 134.475 263.014C137.607 263.77 141.243 264.886 141.243 268.81C141.243 272.338 138.147 274.678 133.611 274.678ZM147.244 253.222C145.408 253.222 144.184 252.142 144.184 250.522C144.184 248.902 145.444 247.75 147.244 247.75C149.116 247.75 150.412 248.902 150.412 250.522C150.412 252.142 149.152 253.222 147.244 253.222ZM144.58 274.246V255.526H149.944V274.246H144.58ZM154.775 274.246V255.526H159.023C159.311 256.282 159.599 257.686 159.599 258.478C161.471 256.246 164.099 255.13 166.583 255.13H166.691C170.975 255.13 173.351 257.794 173.351 262.33V274.246H167.987V263.482C167.987 260.926 166.943 259.63 164.639 259.63H164.495C161.903 259.63 160.139 261.574 160.139 264.346V274.246H154.775ZM176.934 262.15V261.862C176.934 257.794 180.57 255.13 185.502 255.13H186.222C187.446 255.13 188.562 255.31 189.57 255.598C189.966 254.338 190.362 253.474 190.758 252.898H195.546L193.17 257.686C194.25 258.766 194.862 260.206 194.862 261.862V262.15C194.862 266.038 191.19 268.882 186.222 268.882H186.078C185.754 268.882 185.43 268.846 185.142 268.81V270.682C185.682 270.682 186.114 270.646 186.69 270.646H187.086C192.054 270.646 195.798 272.806 195.798 276.046V276.442C195.798 279.682 192.018 281.842 186.906 281.842H185.646C180.57 281.842 176.79 279.682 176.79 276.442V275.938C176.79 273.85 178.446 272.05 180.894 271.114V267.91C178.482 266.758 176.934 264.67 176.934 262.15ZM182.19 261.97V262.438C182.19 264.166 183.846 265.354 185.754 265.354H186.222C188.13 265.354 189.822 264.058 189.822 262.438V261.97C189.822 260.242 188.13 259.018 186.186 259.018H185.79C183.846 259.018 182.19 260.206 182.19 261.97ZM182.118 275.83V276.154C182.118 277.234 183.594 278.062 185.718 278.062H186.834C189.03 278.062 190.578 277.198 190.578 276.154V275.83C190.578 274.75 189.03 273.886 186.834 273.886H185.718C183.594 273.886 182.118 274.75 182.118 275.83ZM208.826 274.246V259.738H206.486V256.39C207.17 256.174 208.07 255.958 208.826 255.85V254.842C208.826 250.846 211.022 248.398 214.838 248.398C216.134 248.398 218.042 248.65 219.158 249.082V253.186C218.258 252.754 217.25 252.574 216.314 252.574C214.658 252.574 213.902 253.294 213.902 255.238V255.778H219.194V259.738H214.19V274.246H208.826ZM228.68 274.642C224.504 274.642 222.164 272.014 222.164 267.55V255.526H227.528V266.362C227.528 268.846 228.536 270.142 230.732 270.142H230.804C233.396 270.142 235.088 268.234 235.088 265.282V255.526H240.452V274.246H236.204C235.916 273.526 235.664 272.158 235.628 271.33C234.008 273.346 231.56 274.642 228.788 274.642H228.68ZM245.267 274.246V255.526H249.551C249.803 256.246 250.019 257.434 250.091 258.226C251.531 256.534 253.691 255.526 256.319 255.526H256.787V260.566C256.427 260.458 255.887 260.314 255.383 260.314C252.287 260.314 250.631 261.898 250.631 264.346V274.246H245.267ZM259.822 274.246V255.526H264.07C264.358 256.282 264.646 257.686 264.646 258.478C266.518 256.246 269.146 255.13 271.63 255.13H271.738C276.022 255.13 278.398 257.794 278.398 262.33V274.246H273.034V263.482C273.034 260.926 271.99 259.63 269.686 259.63H269.542C266.95 259.63 265.186 261.574 265.186 264.346V274.246H259.822ZM285.619 253.222C283.783 253.222 282.559 252.142 282.559 250.522C282.559 248.902 283.819 247.75 285.619 247.75C287.491 247.75 288.787 248.902 288.787 250.522C288.787 252.142 287.527 253.222 285.619 253.222ZM282.955 274.246V255.526H288.319V274.246H282.955ZM299.954 274.498C296.102 274.498 293.762 272.41 293.762 268.342V259.666H291.314V256.102C291.962 255.886 292.934 255.67 293.762 255.598V251.206L299.09 250.558V255.526H304.706V259.666H299.054V267.37C299.054 269.278 299.954 269.998 301.574 269.998C302.51 269.998 304.094 269.746 304.814 269.602V273.67C303.554 274.21 301.394 274.498 299.954 274.498ZM314.356 274.642C310.18 274.642 307.84 272.014 307.84 267.55V255.526H313.204V266.362C313.204 268.846 314.212 270.142 316.408 270.142H316.48C319.072 270.142 320.764 268.234 320.764 265.282V255.526H326.128V274.246H321.88C321.592 273.526 321.34 272.158 321.304 271.33C319.684 273.346 317.236 274.642 314.464 274.642H314.356ZM330.943 274.246V255.526H335.227C335.479 256.246 335.695 257.434 335.767 258.226C337.207 256.534 339.367 255.526 341.995 255.526H342.463V260.566C342.103 260.458 341.563 260.314 341.059 260.314C337.963 260.314 336.307 261.898 336.307 264.346V274.246H330.943ZM354.39 274.642C348.558 274.642 344.49 270.826 344.49 265.246V264.634C344.49 259.162 348.666 255.166 354.21 255.166H354.534C359.826 255.166 363.642 258.802 363.642 263.698V266.362H349.71C350.034 268.81 351.942 270.358 354.714 270.358H354.93C357.162 270.358 359.142 269.35 360.294 268.126L362.922 271.474C361.122 273.31 357.81 274.642 354.858 274.642H354.39ZM349.854 263.086H358.566C358.422 260.746 356.766 259.09 354.39 259.09H354.282C352.05 259.09 350.322 260.602 349.854 263.086ZM382.114 274.642C378.298 274.642 375.598 272.41 375.598 269.062V268.738C375.598 264.742 379.342 262.654 386.794 262.654H388.198V262.114C388.198 260.458 387.046 259.342 384.742 259.342H384.598C382.726 259.342 380.53 260.026 378.55 261.142L376.498 257.434C378.766 256.03 381.826 255.13 384.85 255.13H385.174C390.106 255.13 393.238 257.794 393.238 262.294V269.962C393.238 271.474 393.526 272.842 393.886 274.246H388.846C388.63 273.67 388.45 272.914 388.378 272.086C386.938 273.562 384.778 274.642 382.114 274.642ZM383.482 270.574C385.246 270.574 387.046 269.854 388.234 268.594V265.786H386.938C382.726 265.786 380.71 266.722 380.71 268.45V268.558C380.71 269.746 381.826 270.574 383.482 270.574ZM398.057 274.246V255.526H402.305C402.593 256.282 402.881 257.686 402.881 258.478C404.753 256.246 407.381 255.13 409.865 255.13H409.973C414.257 255.13 416.633 257.794 416.633 262.33V274.246H411.269V263.482C411.269 260.926 410.225 259.63 407.921 259.63H407.777C405.185 259.63 403.421 261.574 403.421 264.346V274.246H398.057ZM429.073 274.642C423.925 274.642 420.145 270.718 420.145 265.246V264.526C420.145 259.054 423.925 255.13 429.073 255.13H429.289C431.629 255.13 433.717 255.958 435.229 257.398V248.326H440.593V274.246H436.345C436.093 273.634 435.913 272.626 435.805 271.834C434.221 273.598 431.917 274.642 429.289 274.642H429.073ZM430.333 270.646H430.621C433.285 270.646 435.229 268.342 435.229 265.066V264.706C435.229 261.43 433.321 259.126 430.621 259.126H430.333C427.669 259.126 425.725 261.43 425.725 264.706V265.066C425.725 268.342 427.669 270.646 430.333 270.646ZM462.577 274.642C457.429 274.642 453.649 270.718 453.649 265.246V264.526C453.649 259.054 457.429 255.13 462.577 255.13H462.793C465.133 255.13 467.221 255.958 468.733 257.398V248.326H474.097V274.246H469.849C469.597 273.634 469.417 272.626 469.309 271.834C467.725 273.598 465.421 274.642 462.793 274.642H462.577ZM463.837 270.646H464.125C466.789 270.646 468.733 268.342 468.733 265.066V264.706C468.733 261.43 466.825 259.126 464.125 259.126H463.837C461.173 259.126 459.229 261.43 459.229 264.706V265.066C459.229 268.342 461.173 270.646 463.837 270.646ZM487.808 274.642C481.976 274.642 477.908 270.826 477.908 265.246V264.634C477.908 259.162 482.084 255.166 487.628 255.166H487.952C493.244 255.166 497.06 258.802 497.06 263.698V266.362H483.128C483.452 268.81 485.36 270.358 488.132 270.358H488.348C490.58 270.358 492.56 269.35 493.712 268.126L496.34 271.474C494.54 273.31 491.228 274.642 488.276 274.642H487.808ZM483.272 263.086H491.984C491.84 260.746 490.184 259.09 487.808 259.09H487.7C485.468 259.09 483.74 260.602 483.272 263.086ZM509.527 274.606C503.875 274.606 499.951 270.682 499.951 265.21V264.49C499.951 259.09 504.019 255.166 509.455 255.166H509.743C513.271 255.166 516.079 256.714 517.879 259.27L514.063 262.006C513.019 260.134 511.687 259.27 509.851 259.27H509.779C507.115 259.27 505.495 261.25 505.495 264.706V265.066C505.495 268.414 507.295 270.43 509.923 270.43H510.103C512.011 270.43 513.343 269.386 514.315 267.658L518.023 270.574C516.223 273.13 513.487 274.606 509.851 274.606H509.527ZM530.072 274.642C524.204 274.642 519.92 270.646 519.92 265.246V264.526C519.92 259.126 524.204 255.13 530.072 255.13H530.396C536.264 255.13 540.548 259.126 540.548 264.526V265.246C540.548 270.646 536.264 274.642 530.396 274.642H530.072ZM530.108 270.646H530.36C533.024 270.646 534.968 268.342 534.968 265.066V264.706C534.968 261.43 533.024 259.126 530.36 259.126H530.108C527.444 259.126 525.464 261.43 525.464 264.706V265.066C525.464 268.342 527.444 270.646 530.108 270.646ZM544.377 274.246V255.526H548.661C548.913 256.246 549.129 257.434 549.201 258.226C550.641 256.534 552.801 255.526 555.429 255.526H555.897V260.566C555.537 260.458 554.997 260.314 554.493 260.314C551.397 260.314 549.741 261.898 549.741 264.346V274.246H544.377Z" fill="#EFEFEF"/>
<path d="M185.321 307.969C183.113 307.969 180.665 307.153 179.105 305.521L180.041 304.417C181.337 305.809 183.425 306.577 185.417 306.577C187.937 306.577 189.617 305.353 189.617 303.385C189.617 301.153 187.361 300.433 184.985 299.689C182.345 298.897 179.561 297.985 179.561 295.033C179.561 292.249 181.985 290.713 184.937 290.713C187.097 290.713 189.233 291.529 190.481 292.849L189.545 293.881C188.417 292.729 186.641 292.129 184.937 292.129C182.585 292.129 181.025 293.305 181.025 294.985C181.025 297.025 183.401 297.649 185.921 298.441C188.417 299.257 191.129 300.265 191.129 303.265C191.129 306.289 188.489 307.969 185.321 307.969ZM199.602 307.897C196.026 307.897 193.506 305.329 193.506 301.825V301.489C193.506 297.793 196.05 295.129 199.602 295.129H199.626C202.986 295.129 205.314 297.505 205.314 300.961V302.089H194.922V302.137C195.09 304.729 197.01 306.553 199.698 306.553C201.498 306.553 203.082 305.737 203.922 304.537L205.002 305.257C203.754 306.961 201.762 307.897 199.602 307.897ZM194.97 300.817H203.97V300.745C203.874 298.201 202.074 296.473 199.53 296.473C197.01 296.473 195.21 298.225 194.97 300.817ZM208.946 307.753V290.473H210.29V307.753H208.946ZM219.992 307.897C216.416 307.897 213.896 305.329 213.896 301.825V301.489C213.896 297.793 216.44 295.129 219.992 295.129H220.016C223.376 295.129 225.704 297.505 225.704 300.961V302.089H215.312V302.137C215.48 304.729 217.4 306.553 220.088 306.553C221.888 306.553 223.472 305.737 224.312 304.537L225.392 305.257C224.144 306.961 222.152 307.897 219.992 307.897ZM215.36 300.817H224.36V300.745C224.264 298.201 222.464 296.473 219.92 296.473C217.4 296.473 215.6 298.225 215.36 300.817ZM234.665 307.897C231.113 307.897 228.545 305.305 228.545 301.633V301.393C228.545 297.721 231.113 295.129 234.617 295.129H234.713C237.089 295.129 238.937 296.377 239.921 298.225L238.793 298.849C237.977 297.337 236.537 296.425 234.665 296.425H234.617C231.833 296.425 229.961 298.417 229.961 301.393V301.633C229.961 304.537 232.001 306.601 234.785 306.601H234.833C236.729 306.601 238.097 305.617 238.889 304.249L239.993 304.921C238.961 306.721 237.137 307.897 234.785 307.897H234.665ZM246.884 307.825C244.772 307.825 243.452 306.865 243.452 304.561V296.545H241.7V295.609C242.156 295.465 242.876 295.345 243.452 295.297V292.393L244.796 292.201V295.273H249.188V296.545H244.796V304.345C244.796 305.905 245.612 306.529 247.052 306.529C247.724 306.529 248.9 306.409 249.452 306.217V307.441C248.876 307.681 247.724 307.825 246.884 307.825ZM253.165 293.017C252.589 293.017 252.181 292.609 252.181 292.057C252.181 291.505 252.589 291.073 253.165 291.073C253.693 291.073 254.125 291.505 254.125 292.057C254.125 292.609 253.693 293.017 253.165 293.017ZM252.493 307.753V295.273H253.837V307.753H252.493ZM258.235 307.753V295.273H259.267C259.411 295.777 259.531 296.593 259.555 297.433C260.539 295.993 262.243 295.105 264.283 295.105H264.355C267.379 295.105 268.939 296.761 268.939 299.761V307.753H267.595V299.977C267.595 297.721 266.491 296.449 264.163 296.449H264.067C261.403 296.449 259.579 298.081 259.579 300.601V307.753H258.235ZM272.254 299.665V299.473C272.254 296.953 274.438 295.129 277.438 295.129H277.534C278.83 295.129 279.958 295.465 280.822 296.041C281.11 295.345 281.422 294.721 281.902 294.073H283.246L281.758 296.833C282.382 297.553 282.742 298.465 282.742 299.473V299.665C282.742 302.185 280.534 303.985 277.534 303.985H277.438C276.862 303.985 276.334 303.913 275.83 303.769V305.689C276.358 305.593 276.982 305.545 277.606 305.545H277.75C280.966 305.545 283.294 306.889 283.294 309.025V309.169C283.294 311.281 280.966 312.625 277.75 312.625H277.606C274.366 312.625 272.062 311.305 272.062 309.193V309.025C272.062 307.633 273.07 306.577 274.534 306.025V303.289C273.118 302.545 272.254 301.249 272.254 299.665ZM273.646 299.497V299.641C273.646 301.441 275.254 302.713 277.438 302.713H277.558C279.742 302.713 281.35 301.417 281.35 299.641V299.497C281.35 297.721 279.742 296.401 277.51 296.401H277.462C275.254 296.401 273.646 297.697 273.646 299.497ZM273.454 309.049V309.145C273.454 310.537 275.11 311.377 277.63 311.377H277.726C280.222 311.377 281.902 310.513 281.902 309.145V309.049C281.902 307.657 280.222 306.793 277.726 306.793H277.63C275.134 306.793 273.454 307.657 273.454 309.049ZM293.759 293.017C293.183 293.017 292.775 292.609 292.775 292.057C292.775 291.505 293.183 291.073 293.759 291.073C294.287 291.073 294.719 291.505 294.719 292.057C294.719 292.609 294.287 293.017 293.759 293.017ZM293.087 307.753V295.273H294.431V307.753H293.087ZM302.501 307.825C300.389 307.825 299.069 306.865 299.069 304.561V296.545H297.317V295.609C297.773 295.465 298.493 295.345 299.069 295.297V292.393L300.413 292.201V295.273H304.805V296.545H300.413V304.345C300.413 305.905 301.229 306.529 302.669 306.529C303.341 306.529 304.517 306.409 305.069 306.217V307.441C304.493 307.681 303.341 307.825 302.501 307.825ZM313.11 307.897C309.534 307.897 307.014 305.329 307.014 301.825V301.489C307.014 297.793 309.558 295.129 313.11 295.129H313.134C316.494 295.129 318.822 297.505 318.822 300.961V302.089H308.43V302.137C308.598 304.729 310.518 306.553 313.206 306.553C315.006 306.553 316.59 305.737 317.43 304.537L318.51 305.257C317.262 306.961 315.27 307.897 313.11 307.897ZM308.478 300.817H317.478V300.745C317.382 298.201 315.582 296.473 313.038 296.473C310.518 296.473 308.718 298.225 308.478 300.817ZM322.454 307.753V295.273H323.486C323.606 295.657 323.702 296.425 323.75 297.193C324.638 295.897 326.078 295.105 327.782 295.105H327.83C329.798 295.105 331.07 295.969 331.574 297.625C332.414 296.065 333.974 295.105 335.894 295.105H335.942C338.582 295.105 339.95 296.689 339.95 299.593V307.753H338.606V299.785C338.606 297.625 337.646 296.449 335.678 296.449H335.63C333.422 296.449 331.862 297.913 331.862 300.361V307.753H330.518V299.785C330.518 297.625 329.558 296.449 327.566 296.449H327.518C325.31 296.449 323.798 297.913 323.798 300.361V307.753H322.454ZM348.214 307.921C346.246 307.921 344.182 307.225 342.886 306.049L343.678 305.041C345.022 306.073 346.582 306.625 348.262 306.625C350.326 306.625 351.622 305.737 351.622 304.417C351.622 302.761 349.654 302.353 347.614 301.873C345.286 301.345 343.366 300.673 343.366 298.537C343.366 296.473 345.166 295.105 347.782 295.105C349.438 295.105 351.238 295.657 352.486 296.593L351.814 297.697C350.614 296.881 349.078 296.425 347.71 296.425C345.886 296.425 344.758 297.241 344.758 298.417C344.758 299.473 345.646 300.049 348.31 300.673C350.926 301.273 353.038 301.969 353.038 304.273C353.038 306.481 351.07 307.921 348.214 307.921ZM366.556 307.825C364.444 307.825 363.124 306.865 363.124 304.561V296.545H361.372V295.609C361.828 295.465 362.548 295.345 363.124 295.297V292.393L364.468 292.201V295.273H368.86V296.545H364.468V304.345C364.468 305.905 365.284 306.529 366.724 306.529C367.396 306.529 368.572 306.409 369.124 306.217V307.441C368.548 307.681 367.396 307.825 366.556 307.825ZM372.165 307.753V290.473H373.509V297.481C374.517 296.017 376.269 295.105 378.381 295.105C381.285 295.105 382.869 296.761 382.869 299.761V307.753H381.525V299.977C381.525 297.649 380.325 296.449 378.045 296.449C375.333 296.449 373.509 298.129 373.509 300.601V307.753H372.165ZM390.504 307.921C387.888 307.921 386.088 306.385 386.088 304.153V304.105C386.088 301.489 388.632 300.121 393.576 300.121H395.136V299.065C395.136 297.433 393.864 296.449 391.824 296.449H391.8C390.384 296.449 388.752 296.929 387.432 297.817L386.76 296.713C388.392 295.681 390.072 295.081 391.848 295.081H391.896C394.704 295.081 396.48 296.593 396.48 298.993V305.569C396.48 306.241 396.672 307.153 396.912 307.753H395.544C395.376 307.345 395.232 306.673 395.16 306.097C393.816 307.297 392.184 307.921 390.504 307.921ZM390.528 306.577C392.328 306.577 393.96 305.809 395.136 304.561V301.369H393.888C389.496 301.369 387.456 302.257 387.456 304.129V304.177C387.456 305.593 388.728 306.577 390.528 306.577ZM404.454 307.825C402.342 307.825 401.022 306.865 401.022 304.561V296.545H399.27V295.609C399.726 295.465 400.446 295.345 401.022 295.297V292.393L402.366 292.201V295.273H406.758V296.545H402.366V304.345C402.366 305.905 403.182 306.529 404.622 306.529C405.294 306.529 406.47 306.409 407.022 306.217V307.441C406.446 307.681 405.294 307.825 404.454 307.825ZM155.966 336.753V324.273H156.998C157.118 324.657 157.214 325.425 157.262 326.193C158.15 324.897 159.59 324.105 161.294 324.105H161.342C163.31 324.105 164.582 324.969 165.086 326.625C165.926 325.065 167.486 324.105 169.406 324.105H169.454C172.094 324.105 173.462 325.689 173.462 328.593V336.753H172.118V328.785C172.118 326.625 171.158 325.449 169.19 325.449H169.142C166.934 325.449 165.374 326.913 165.374 329.361V336.753H164.03V328.785C164.03 326.625 163.07 325.449 161.078 325.449H161.03C158.822 325.449 157.31 326.913 157.31 329.361V336.753H155.966ZM181.101 336.921C178.485 336.921 176.685 335.385 176.685 333.153V333.105C176.685 330.489 179.229 329.121 184.173 329.121H185.733V328.065C185.733 326.433 184.461 325.449 182.421 325.449H182.397C180.981 325.449 179.349 325.929 178.029 326.817L177.357 325.713C178.989 324.681 180.669 324.081 182.445 324.081H182.493C185.301 324.081 187.077 325.593 187.077 327.993V334.569C187.077 335.241 187.269 336.153 187.509 336.753H186.141C185.973 336.345 185.829 335.673 185.757 335.097C184.413 336.297 182.781 336.921 181.101 336.921ZM181.125 335.577C182.925 335.577 184.557 334.809 185.733 333.561V330.369H184.485C180.093 330.369 178.053 331.257 178.053 333.129V333.177C178.053 334.593 179.325 335.577 181.125 335.577ZM195.052 336.825C192.94 336.825 191.62 335.865 191.62 333.561V325.545H189.868V324.609C190.324 324.465 191.044 324.345 191.62 324.297V321.393L192.964 321.201V324.273H197.356V325.545H192.964V333.345C192.964 334.905 193.78 335.529 195.22 335.529C195.892 335.529 197.068 335.409 197.62 335.217V336.441C197.044 336.681 195.892 336.825 195.052 336.825ZM205.684 336.897C202.132 336.897 199.564 334.305 199.564 330.633V330.393C199.564 326.721 202.132 324.129 205.636 324.129H205.732C208.108 324.129 209.956 325.377 210.94 327.225L209.812 327.849C208.996 326.337 207.556 325.425 205.684 325.425H205.636C202.852 325.425 200.98 327.417 200.98 330.393V330.633C200.98 333.537 203.02 335.601 205.804 335.601H205.852C207.748 335.601 209.116 334.617 209.908 333.249L211.012 333.921C209.98 335.721 208.156 336.897 205.804 336.897H205.684ZM214.231 336.753V319.473H215.575V326.481C216.583 325.017 218.335 324.105 220.447 324.105C223.351 324.105 224.935 325.761 224.935 328.761V336.753H223.591V328.977C223.591 326.649 222.391 325.449 220.111 325.449C217.399 325.449 215.575 327.129 215.575 329.601V336.753H214.231ZM236.898 341.457C236.346 341.457 235.602 341.337 235.05 341.025V339.753C235.626 340.017 236.154 340.161 236.682 340.161C238.002 340.161 238.914 339.153 239.682 337.329L233.994 324.273H235.53L240.282 335.337H240.45L244.626 324.273H246.09L241.122 337.425C240.186 339.945 239.01 341.457 236.898 341.457ZM253.521 336.897C249.921 336.897 247.353 334.281 247.353 330.609V330.417C247.353 326.745 249.921 324.129 253.521 324.129H253.617C257.241 324.129 259.785 326.745 259.785 330.417V330.609C259.785 334.281 257.241 336.897 253.617 336.897H253.521ZM253.545 335.577H253.593C256.401 335.577 258.393 333.513 258.393 330.585V330.441C258.393 327.513 256.401 325.449 253.593 325.449H253.545C250.737 325.449 248.769 327.513 248.769 330.441V330.585C248.769 333.513 250.737 335.577 253.545 335.577ZM267.651 336.921C264.675 336.921 263.163 335.265 263.163 332.265V324.273H264.507V332.049C264.507 334.305 265.563 335.577 267.843 335.577H267.915C270.507 335.577 272.355 333.945 272.355 331.425V324.273H273.699V336.753H272.643C272.499 336.249 272.403 335.457 272.355 334.617C271.395 336.033 269.715 336.921 267.699 336.921H267.651ZM278.099 336.753V324.273H279.131C279.275 324.801 279.395 325.617 279.419 326.409C280.331 325.089 281.891 324.273 283.739 324.273H284.003V325.665C283.859 325.641 283.643 325.617 283.499 325.617C281.075 325.617 279.443 327.201 279.443 329.769V336.753H278.099ZM293.708 341.553V324.273H294.74C294.884 324.825 295.004 325.833 295.052 326.697C296.06 325.113 297.812 324.129 299.924 324.129H300.02C303.524 324.129 306.068 326.721 306.068 330.417V330.609C306.068 334.305 303.524 336.897 300.02 336.897H299.924C297.812 336.897 296.06 335.913 295.052 334.329V341.553H293.708ZM299.78 335.553H299.9C302.732 335.553 304.652 333.561 304.652 330.585V330.441C304.652 327.465 302.732 325.473 299.9 325.473H299.78C296.972 325.473 295.052 327.465 295.052 330.441V330.585C295.052 333.561 296.972 335.553 299.78 335.553ZM309.692 336.753V324.273H310.724C310.868 324.801 310.988 325.617 311.012 326.409C311.924 325.089 313.484 324.273 315.332 324.273H315.596V325.665C315.452 325.641 315.236 325.617 315.092 325.617C312.668 325.617 311.036 327.201 311.036 329.769V336.753H309.692ZM323.949 336.897C320.373 336.897 317.853 334.329 317.853 330.825V330.489C317.853 326.793 320.397 324.129 323.949 324.129H323.973C327.333 324.129 329.661 326.505 329.661 329.961V331.089H319.269V331.137C319.437 333.729 321.357 335.553 324.045 335.553C325.845 335.553 327.429 334.737 328.269 333.537L329.349 334.257C328.101 335.961 326.109 336.897 323.949 336.897ZM319.317 329.817H328.317V329.745C328.221 327.201 326.421 325.473 323.877 325.473C321.357 325.473 319.557 327.225 319.317 329.817ZM333.198 336.753V325.545H331.71V324.633C332.142 324.489 332.694 324.369 333.198 324.321V323.265C333.198 320.913 334.566 319.497 336.726 319.497C337.518 319.497 338.43 319.665 339.006 319.977V321.225C338.406 320.937 337.686 320.793 336.942 320.793C335.406 320.793 334.542 321.609 334.542 323.337V324.273H338.742V325.545H334.542V336.753H333.198ZM346.074 336.897C342.498 336.897 339.978 334.329 339.978 330.825V330.489C339.978 326.793 342.522 324.129 346.074 324.129H346.098C349.458 324.129 351.786 326.505 351.786 329.961V331.089H341.394V331.137C341.562 333.729 343.482 335.553 346.17 335.553C347.97 335.553 349.554 334.737 350.394 333.537L351.474 334.257C350.226 335.961 348.234 336.897 346.074 336.897ZM341.442 329.817H350.442V329.745C350.346 327.201 348.546 325.473 346.002 325.473C343.482 325.473 341.682 327.225 341.442 329.817ZM355.419 336.753V324.273H356.451C356.595 324.801 356.715 325.617 356.739 326.409C357.651 325.089 359.211 324.273 361.059 324.273H361.323V325.665C361.179 325.641 360.963 325.617 360.819 325.617C358.395 325.617 356.763 327.201 356.763 329.769V336.753H355.419ZM369.676 336.897C366.1 336.897 363.58 334.329 363.58 330.825V330.489C363.58 326.793 366.124 324.129 369.676 324.129H369.7C373.06 324.129 375.388 326.505 375.388 329.961V331.089H364.996V331.137C365.164 333.729 367.084 335.553 369.772 335.553C371.572 335.553 373.156 334.737 373.996 333.537L375.076 334.257C373.828 335.961 371.836 336.897 369.676 336.897ZM365.044 329.817H374.044V329.745C373.948 327.201 372.148 325.473 369.604 325.473C367.084 325.473 365.284 327.225 365.044 329.817ZM379.02 336.753V324.273H380.052C380.196 324.777 380.316 325.593 380.34 326.433C381.324 324.993 383.028 324.105 385.068 324.105H385.14C388.164 324.105 389.724 325.761 389.724 328.761V336.753H388.38V328.977C388.38 326.721 387.276 325.449 384.948 325.449H384.852C382.188 325.449 380.364 327.081 380.364 329.601V336.753H379.02ZM399.231 336.897C395.679 336.897 393.111 334.305 393.111 330.633V330.393C393.111 326.721 395.679 324.129 399.183 324.129H399.279C401.655 324.129 403.503 325.377 404.487 327.225L403.359 327.849C402.543 326.337 401.103 325.425 399.231 325.425H399.183C396.399 325.425 394.527 327.417 394.527 330.393V330.633C394.527 333.537 396.567 335.601 399.351 335.601H399.399C401.295 335.601 402.663 334.617 403.455 333.249L404.559 333.921C403.527 335.721 401.703 336.897 399.351 336.897H399.231ZM413.012 336.897C409.436 336.897 406.916 334.329 406.916 330.825V330.489C406.916 326.793 409.46 324.129 413.012 324.129H413.036C416.396 324.129 418.724 326.505 418.724 329.961V331.089H408.332V331.137C408.5 333.729 410.42 335.553 413.108 335.553C414.908 335.553 416.492 334.737 417.332 333.537L418.412 334.257C417.164 335.961 415.172 336.897 413.012 336.897ZM408.38 329.817H417.38V329.745C417.284 327.201 415.484 325.473 412.94 325.473C410.42 325.473 408.62 327.225 408.38 329.817ZM426.436 336.921C424.468 336.921 422.404 336.225 421.108 335.049L421.9 334.041C423.244 335.073 424.804 335.625 426.484 335.625C428.548 335.625 429.844 334.737 429.844 333.417C429.844 331.761 427.876 331.353 425.836 330.873C423.508 330.345 421.588 329.673 421.588 327.537C421.588 325.473 423.388 324.105 426.004 324.105C427.66 324.105 429.46 324.657 430.708 325.593L430.036 326.697C428.836 325.881 427.3 325.425 425.932 325.425C424.108 325.425 422.98 326.241 422.98 327.417C422.98 328.473 423.868 329.049 426.532 329.673C429.148 330.273 431.26 330.969 431.26 333.273C431.26 335.481 429.292 336.921 426.436 336.921Z" fill="#EFEFEF"/>
</g>
<defs>
<clipPath id="clip0_1365_5316">
<rect width="586" height="586" fill="white"/>
</clipPath>
</defs>
</svg>
