<svg width="562" height="562" viewBox="0 0 562 562" fill="none" xmlns="http://www.w3.org/2000/svg">
<circle cx="281" cy="281" r="281" fill="#666562"/>
<path d="M94.464 257V234.6H103.488C108.544 234.6 111.584 237.256 111.584 241.608V241.928C111.584 244.68 110.112 246.952 107.712 248.008L113.056 257H107.264L102.976 249.128H99.456V257H94.464ZM99.296 245.352H102.752C105.344 245.352 106.624 244.04 106.624 242.088V241.832C106.624 239.88 105.312 238.76 102.784 238.76H99.296V245.352ZM122.772 257.352C117.556 257.352 113.748 253.8 113.748 249V248.36C113.748 243.56 117.556 240.008 122.772 240.008H123.06C128.276 240.008 132.084 243.56 132.084 248.36V249C132.084 253.8 128.276 257.352 123.06 257.352H122.772ZM122.804 253.8H123.028C125.396 253.8 127.124 251.752 127.124 248.84V248.52C127.124 245.608 125.396 243.56 123.028 243.56H122.804C120.436 243.56 118.676 245.608 118.676 248.52V248.84C118.676 251.752 120.436 253.8 122.804 253.8ZM143.616 257.352C138.4 257.352 134.592 253.8 134.592 249V248.36C134.592 243.56 138.4 240.008 143.616 240.008H143.904C149.12 240.008 152.928 243.56 152.928 248.36V249C152.928 253.8 149.12 257.352 143.904 257.352H143.616ZM143.648 253.8H143.872C146.24 253.8 147.968 251.752 147.968 248.84V248.52C147.968 245.608 146.24 243.56 143.872 243.56H143.648C141.28 243.56 139.52 245.608 139.52 248.52V248.84C139.52 251.752 141.28 253.8 143.648 253.8ZM156.332 257V240.36H160.108C160.332 240.968 160.556 242.056 160.588 242.76C161.9 241.096 163.82 240.008 165.964 240.008H165.996C168.364 240.008 170.028 241.064 170.86 242.92C172.172 241.128 174.156 239.976 176.396 239.976H176.428C179.948 239.976 181.9 242.312 181.9 246.28V257H177.132V247.144C177.132 244.776 176.332 244.008 174.636 243.976H174.604C172.78 244.04 171.5 245.256 171.5 247.88V257H166.732V247.144C166.732 244.776 165.932 244.04 164.204 244.008H164.172C162.38 244.04 161.1 245.288 161.1 247.88V257H156.332ZM198.911 257.352C195.519 257.352 193.118 255.368 193.118 252.392V252.104C193.118 248.552 196.447 246.696 203.071 246.696H204.319V246.216C204.319 244.744 203.295 243.752 201.247 243.752H201.119C199.455 243.752 197.503 244.36 195.743 245.352L193.919 242.056C195.935 240.808 198.655 240.008 201.343 240.008H201.631C206.015 240.008 208.799 242.376 208.799 246.376V253.192C208.799 254.536 209.055 255.752 209.375 257H204.895C204.703 256.488 204.543 255.816 204.479 255.08C203.199 256.392 201.279 257.352 198.911 257.352ZM200.127 253.736C201.695 253.736 203.295 253.096 204.351 251.976V249.48H203.199C199.455 249.48 197.663 250.312 197.663 251.848V251.944C197.663 253 198.655 253.736 200.127 253.736ZM213.082 257V240.36H216.858C217.114 241.032 217.37 242.28 217.37 242.984C219.034 241 221.37 240.008 223.578 240.008H223.674C227.482 240.008 229.594 242.376 229.594 246.408V257H224.826V247.432C224.826 245.16 223.898 244.008 221.85 244.008H221.722C219.418 244.008 217.85 245.736 217.85 248.2V257H213.082ZM240.652 257.352C236.076 257.352 232.716 253.864 232.716 249V248.36C232.716 243.496 236.076 240.008 240.652 240.008H240.844C242.924 240.008 244.78 240.744 246.124 242.024V233.96H250.892V257H247.116C246.892 256.456 246.732 255.56 246.636 254.856C245.228 256.424 243.18 257.352 240.844 257.352H240.652ZM241.772 253.8H242.028C244.396 253.8 246.124 251.752 246.124 248.84V248.52C246.124 245.608 244.428 243.56 242.028 243.56H241.772C239.404 243.56 237.676 245.608 237.676 248.52V248.84C237.676 251.752 239.404 253.8 241.772 253.8ZM270.081 257.384C266.977 257.384 264.193 256.584 261.921 255.048L264.161 251.624C265.601 252.808 268.001 253.64 269.985 253.64C271.521 253.64 272.385 253.096 272.385 252.136C272.385 250.728 270.529 250.856 266.913 249.608C264.737 248.936 262.689 247.88 262.689 245.128C262.689 241.992 265.249 239.976 269.281 239.976C271.713 239.976 274.305 240.744 276.129 242.12L273.889 245.384C272.705 244.36 270.689 243.688 268.993 243.688C267.553 243.688 266.913 244.232 266.913 245.032C266.913 246.088 268.385 246.408 270.849 247.016C273.633 247.688 276.865 248.68 276.865 252.168C276.865 255.304 274.113 257.384 270.081 257.384ZM279.864 263.4V240.36H283.64C283.832 240.904 284.024 241.8 284.088 242.472C285.496 240.936 287.544 240.008 289.88 240.008H290.072C294.648 240.008 298.008 243.528 298.008 248.36V249C298.008 253.832 294.648 257.352 290.072 257.352H289.88C287.8 257.352 285.976 256.616 284.632 255.368V263.4H279.864ZM288.696 253.8H288.984C291.352 253.8 293.048 251.752 293.048 248.84V248.52C293.048 245.608 291.352 243.56 288.984 243.56H288.696C286.328 243.56 284.632 245.608 284.632 248.52V248.84C284.632 251.752 286.328 253.8 288.696 253.8ZM306.004 257.352C302.612 257.352 300.212 255.368 300.212 252.392V252.104C300.212 248.552 303.54 246.696 310.164 246.696H311.412V246.216C311.412 244.744 310.388 243.752 308.34 243.752H308.212C306.548 243.752 304.596 244.36 302.836 245.352L301.012 242.056C303.028 240.808 305.748 240.008 308.436 240.008H308.724C313.108 240.008 315.892 242.376 315.892 246.376V253.192C315.892 254.536 316.148 255.752 316.468 257H311.988C311.796 256.488 311.636 255.816 311.572 255.08C310.292 256.392 308.372 257.352 306.004 257.352ZM307.22 253.736C308.788 253.736 310.388 253.096 311.444 251.976V249.48H310.292C306.548 249.48 304.756 250.312 304.756 251.848V251.944C304.756 253 305.748 253.736 307.22 253.736ZM327.791 257.32C322.767 257.32 319.279 253.832 319.279 248.968V248.328C319.279 243.528 322.895 240.04 327.727 240.04H327.983C331.119 240.04 333.615 241.416 335.215 243.688L331.823 246.12C330.895 244.456 329.711 243.688 328.079 243.688H328.015C325.647 243.688 324.207 245.448 324.207 248.52V248.84C324.207 251.816 325.807 253.608 328.143 253.608H328.303C329.999 253.608 331.183 252.68 332.047 251.144L335.343 253.736C333.743 256.008 331.311 257.32 328.079 257.32H327.791ZM345.829 257.352C340.645 257.352 337.029 253.96 337.029 249V248.456C337.029 243.592 340.741 240.04 345.669 240.04H345.957C350.661 240.04 354.053 243.272 354.053 247.624V249.992H341.669C341.957 252.168 343.653 253.544 346.117 253.544H346.309C348.293 253.544 350.053 252.648 351.077 251.56L353.413 254.536C351.813 256.168 348.869 257.352 346.245 257.352H345.829ZM341.797 247.08H349.541C349.413 245 347.941 243.528 345.829 243.528H345.733C343.749 243.528 342.213 244.872 341.797 247.08ZM372.777 257.352C368.201 257.352 364.841 253.864 364.841 249V248.36C364.841 243.496 368.201 240.008 372.777 240.008H372.969C375.049 240.008 376.905 240.744 378.249 242.024V233.96H383.017V257H379.241C379.017 256.456 378.857 255.56 378.761 254.856C377.353 256.424 375.305 257.352 372.969 257.352H372.777ZM373.897 253.8H374.153C376.521 253.8 378.249 251.752 378.249 248.84V248.52C378.249 245.608 376.553 243.56 374.153 243.56H373.897C371.529 243.56 369.801 245.608 369.801 248.52V248.84C369.801 251.752 371.529 253.8 373.897 253.8ZM395.204 257.352C390.02 257.352 386.404 253.96 386.404 249V248.456C386.404 243.592 390.116 240.04 395.044 240.04H395.332C400.036 240.04 403.428 243.272 403.428 247.624V249.992H391.044C391.332 252.168 393.028 253.544 395.492 253.544H395.684C397.668 253.544 399.428 252.648 400.452 251.56L402.788 254.536C401.188 256.168 398.244 257.352 395.62 257.352H395.204ZM391.172 247.08H398.916C398.788 245 397.316 243.528 395.204 243.528H395.108C393.124 243.528 391.588 244.872 391.172 247.08ZM413.55 257.384C410.446 257.384 407.662 256.584 405.39 255.048L407.63 251.624C409.07 252.808 411.47 253.64 413.454 253.64C414.99 253.64 415.854 253.096 415.854 252.136C415.854 250.728 413.998 250.856 410.382 249.608C408.206 248.936 406.158 247.88 406.158 245.128C406.158 241.992 408.718 239.976 412.75 239.976C415.182 239.976 417.774 240.744 419.598 242.12L417.358 245.384C416.174 244.36 414.158 243.688 412.462 243.688C411.022 243.688 410.382 244.232 410.382 245.032C410.382 246.088 411.854 246.408 414.318 247.016C417.102 247.688 420.334 248.68 420.334 252.168C420.334 255.304 417.582 257.384 413.55 257.384ZM425.668 238.312C424.036 238.312 422.948 237.352 422.948 235.912C422.948 234.472 424.068 233.448 425.668 233.448C427.332 233.448 428.484 234.472 428.484 235.912C428.484 237.352 427.364 238.312 425.668 238.312ZM423.3 257V240.36H428.068V257H423.3ZM431.403 246.248V245.992C431.403 242.376 434.635 240.008 439.019 240.008H439.659C440.747 240.008 441.739 240.168 442.635 240.424C442.987 239.304 443.339 238.536 443.691 238.024H447.947L445.835 242.28C446.795 243.24 447.339 244.52 447.339 245.992V246.248C447.339 249.704 444.075 252.232 439.659 252.232H439.531C439.243 252.232 438.955 252.2 438.699 252.168V253.832C439.179 253.832 439.563 253.8 440.075 253.8H440.427C444.843 253.8 448.171 255.72 448.171 258.6V258.952C448.171 261.832 444.811 263.752 440.267 263.752H439.147C434.635 263.752 431.275 261.832 431.275 258.952V258.504C431.275 256.648 432.747 255.048 434.923 254.216V251.368C432.779 250.344 431.403 248.488 431.403 246.248ZM436.075 246.088V246.504C436.075 248.04 437.547 249.096 439.243 249.096H439.659C441.355 249.096 442.859 247.944 442.859 246.504V246.088C442.859 244.552 441.355 243.464 439.627 243.464H439.275C437.547 243.464 436.075 244.52 436.075 246.088ZM436.011 258.408V258.696C436.011 259.656 437.323 260.392 439.211 260.392H440.203C442.155 260.392 443.531 259.624 443.531 258.696V258.408C443.531 257.448 442.155 256.68 440.203 256.68H439.211C437.323 256.68 436.011 257.448 436.011 258.408ZM450.707 257V240.36H454.483C454.739 241.032 454.995 242.28 454.995 242.984C456.659 241 458.995 240.008 461.203 240.008H461.299C465.107 240.008 467.219 242.376 467.219 246.408V257H462.451V247.432C462.451 245.16 461.523 244.008 459.475 244.008H459.347C457.043 244.008 455.475 245.736 455.475 248.2V257H450.707Z" fill="#EFEFEF"/>
<path d="M85.1908 298V281.2H90.3028C95.2468 281.2 98.6548 284.536 98.6548 289.168V289.624C98.6548 294.52 95.2468 298 90.3028 298H85.1908ZM86.6308 296.632H90.3028C94.4788 296.632 97.1188 293.752 97.1188 289.576V289.144C97.1188 285.256 94.4548 282.568 90.3028 282.568H86.6308V296.632ZM107.34 298.144C103.764 298.144 101.244 295.576 101.244 292.072V291.736C101.244 288.04 103.788 285.376 107.34 285.376H107.364C110.724 285.376 113.052 287.752 113.052 291.208V292.336H102.66V292.384C102.828 294.976 104.748 296.8 107.436 296.8C109.236 296.8 110.82 295.984 111.66 294.784L112.74 295.504C111.492 297.208 109.5 298.144 107.34 298.144ZM102.708 291.064H111.708V290.992C111.612 288.448 109.812 286.72 107.268 286.72C104.748 286.72 102.948 288.472 102.708 291.064ZM122.013 298.144C118.461 298.144 115.893 295.552 115.893 291.88V291.64C115.893 287.968 118.461 285.376 121.965 285.376H122.061C124.437 285.376 126.285 286.624 127.269 288.472L126.141 289.096C125.325 287.584 123.885 286.672 122.013 286.672H121.965C119.181 286.672 117.309 288.664 117.309 291.64V291.88C117.309 294.784 119.349 296.848 122.133 296.848H122.181C124.077 296.848 125.445 295.864 126.237 294.496L127.341 295.168C126.309 296.968 124.485 298.144 122.133 298.144H122.013ZM135.865 298.144C132.265 298.144 129.697 295.528 129.697 291.856V291.664C129.697 287.992 132.265 285.376 135.865 285.376H135.961C139.585 285.376 142.129 287.992 142.129 291.664V291.856C142.129 295.528 139.585 298.144 135.961 298.144H135.865ZM135.889 296.824H135.937C138.745 296.824 140.737 294.76 140.737 291.832V291.688C140.737 288.76 138.745 286.696 135.937 286.696H135.889C133.081 286.696 131.113 288.76 131.113 291.688V291.832C131.113 294.76 133.081 296.824 135.889 296.824ZM145.747 298V285.52H146.779C146.923 286.048 147.043 286.864 147.067 287.656C147.979 286.336 149.539 285.52 151.387 285.52H151.651V286.912C151.507 286.888 151.291 286.864 151.147 286.864C148.723 286.864 147.091 288.448 147.091 291.016V298H145.747ZM158.156 298.168C155.54 298.168 153.74 296.632 153.74 294.4V294.352C153.74 291.736 156.284 290.368 161.228 290.368H162.788V289.312C162.788 287.68 161.516 286.696 159.476 286.696H159.452C158.036 286.696 156.404 287.176 155.084 288.064L154.412 286.96C156.044 285.928 157.724 285.328 159.5 285.328H159.548C162.356 285.328 164.132 286.84 164.132 289.24V295.816C164.132 296.488 164.324 297.4 164.564 298H163.196C163.028 297.592 162.884 296.92 162.812 296.344C161.468 297.544 159.836 298.168 158.156 298.168ZM158.18 296.824C159.98 296.824 161.612 296.056 162.788 294.808V291.616H161.54C157.148 291.616 155.108 292.504 155.108 294.376V294.424C155.108 295.84 156.38 296.824 158.18 296.824ZM172.107 298.072C169.995 298.072 168.675 297.112 168.675 294.808V286.792H166.923V285.856C167.379 285.712 168.099 285.592 168.675 285.544V282.64L170.019 282.448V285.52H174.411V286.792H170.019V294.592C170.019 296.152 170.835 296.776 172.275 296.776C172.947 296.776 174.123 296.656 174.675 296.464V297.688C174.099 297.928 172.947 298.072 172.107 298.072ZM178.388 283.264C177.812 283.264 177.404 282.856 177.404 282.304C177.404 281.752 177.812 281.32 178.388 281.32C178.916 281.32 179.348 281.752 179.348 282.304C179.348 282.856 178.916 283.264 178.388 283.264ZM177.716 298V285.52H179.06V298H177.716ZM183.458 298V285.52H184.49C184.634 286.024 184.754 286.84 184.778 287.68C185.762 286.24 187.466 285.352 189.506 285.352H189.578C192.602 285.352 194.162 287.008 194.162 290.008V298H192.818V290.224C192.818 287.968 191.714 286.696 189.386 286.696H189.29C186.626 286.696 184.802 288.328 184.802 290.848V298H183.458ZM197.477 289.912V289.72C197.477 287.2 199.661 285.376 202.661 285.376H202.757C204.053 285.376 205.181 285.712 206.045 286.288C206.333 285.592 206.645 284.968 207.125 284.32H208.469L206.981 287.08C207.605 287.8 207.965 288.712 207.965 289.72V289.912C207.965 292.432 205.757 294.232 202.757 294.232H202.661C202.085 294.232 201.557 294.16 201.053 294.016V295.936C201.581 295.84 202.205 295.792 202.829 295.792H202.973C206.189 295.792 208.517 297.136 208.517 299.272V299.416C208.517 301.528 206.189 302.872 202.973 302.872H202.829C199.589 302.872 197.285 301.552 197.285 299.44V299.272C197.285 297.88 198.293 296.824 199.757 296.272V293.536C198.341 292.792 197.477 291.496 197.477 289.912ZM198.869 289.744V289.888C198.869 291.688 200.477 292.96 202.661 292.96H202.781C204.965 292.96 206.573 291.664 206.573 289.888V289.744C206.573 287.968 204.965 286.648 202.733 286.648H202.685C200.477 286.648 198.869 287.944 198.869 289.744ZM198.677 299.296V299.392C198.677 300.784 200.333 301.624 202.853 301.624H202.949C205.445 301.624 207.125 300.76 207.125 299.392V299.296C207.125 297.904 205.445 297.04 202.949 297.04H202.853C200.357 297.04 198.677 297.904 198.677 299.296ZM221.766 298.168C219.15 298.168 217.35 296.632 217.35 294.4V294.352C217.35 291.736 219.894 290.368 224.838 290.368H226.398V289.312C226.398 287.68 225.126 286.696 223.086 286.696H223.062C221.646 286.696 220.014 287.176 218.694 288.064L218.022 286.96C219.654 285.928 221.334 285.328 223.11 285.328H223.158C225.966 285.328 227.742 286.84 227.742 289.24V295.816C227.742 296.488 227.934 297.4 228.174 298H226.806C226.638 297.592 226.494 296.92 226.422 296.344C225.078 297.544 223.446 298.168 221.766 298.168ZM221.79 296.824C223.59 296.824 225.222 296.056 226.398 294.808V291.616H225.15C220.758 291.616 218.718 292.504 218.718 294.376V294.424C218.718 295.84 219.99 296.824 221.79 296.824ZM237.442 298.144C233.89 298.144 231.322 295.552 231.322 291.88V291.64C231.322 287.968 233.89 285.376 237.394 285.376H237.49C239.866 285.376 241.714 286.624 242.698 288.472L241.57 289.096C240.754 287.584 239.314 286.672 237.442 286.672H237.394C234.61 286.672 232.738 288.664 232.738 291.64V291.88C232.738 294.784 234.778 296.848 237.562 296.848H237.61C239.506 296.848 240.874 295.864 241.666 294.496L242.77 295.168C241.738 296.968 239.914 298.144 237.562 298.144H237.442ZM251.247 298.144C247.695 298.144 245.127 295.552 245.127 291.88V291.64C245.127 287.968 247.695 285.376 251.199 285.376H251.295C253.671 285.376 255.519 286.624 256.503 288.472L255.375 289.096C254.559 287.584 253.119 286.672 251.247 286.672H251.199C248.415 286.672 246.543 288.664 246.543 291.64V291.88C246.543 294.784 248.583 296.848 251.367 296.848H251.415C253.311 296.848 254.679 295.864 255.471 294.496L256.575 295.168C255.543 296.968 253.719 298.144 251.367 298.144H251.247ZM265.1 298.144C261.5 298.144 258.932 295.528 258.932 291.856V291.664C258.932 287.992 261.5 285.376 265.1 285.376H265.196C268.82 285.376 271.364 287.992 271.364 291.664V291.856C271.364 295.528 268.82 298.144 265.196 298.144H265.1ZM265.124 296.824H265.172C267.98 296.824 269.972 294.76 269.972 291.832V291.688C269.972 288.76 267.98 286.696 265.172 286.696H265.124C262.316 286.696 260.348 288.76 260.348 291.688V291.832C260.348 294.76 262.316 296.824 265.124 296.824ZM274.981 298V285.52H276.013C276.157 286.048 276.277 286.864 276.301 287.656C277.213 286.336 278.773 285.52 280.621 285.52H280.885V286.912C280.741 286.888 280.525 286.864 280.381 286.864C277.957 286.864 276.325 288.448 276.325 291.016V298H274.981ZM289.191 298.144C285.687 298.144 283.143 295.552 283.143 291.856V291.664C283.143 287.968 285.687 285.376 289.191 285.376H289.263C291.375 285.376 293.151 286.36 294.159 287.968V280.72H295.503V298H294.447C294.327 297.448 294.183 296.464 294.159 295.696V295.552C293.151 297.16 291.375 298.144 289.263 298.144H289.191ZM289.287 296.8H289.407C292.239 296.8 294.159 294.808 294.159 291.832V291.688C294.159 288.712 292.239 286.72 289.407 286.72H289.287C286.479 286.72 284.559 288.712 284.559 291.688V291.832C284.559 294.808 286.479 296.8 289.287 296.8ZM300.591 283.264C300.015 283.264 299.607 282.856 299.607 282.304C299.607 281.752 300.015 281.32 300.591 281.32C301.119 281.32 301.551 281.752 301.551 282.304C301.551 282.856 301.119 283.264 300.591 283.264ZM299.919 298V285.52H301.263V298H299.919ZM305.661 298V285.52H306.693C306.837 286.024 306.957 286.84 306.981 287.68C307.965 286.24 309.669 285.352 311.709 285.352H311.781C314.805 285.352 316.365 287.008 316.365 290.008V298H315.021V290.224C315.021 287.968 313.917 286.696 311.589 286.696H311.493C308.829 286.696 307.005 288.328 307.005 290.848V298H305.661ZM319.68 289.912V289.72C319.68 287.2 321.864 285.376 324.864 285.376H324.96C326.256 285.376 327.384 285.712 328.248 286.288C328.536 285.592 328.848 284.968 329.328 284.32H330.672L329.184 287.08C329.808 287.8 330.168 288.712 330.168 289.72V289.912C330.168 292.432 327.96 294.232 324.96 294.232H324.864C324.288 294.232 323.76 294.16 323.256 294.016V295.936C323.784 295.84 324.408 295.792 325.032 295.792H325.176C328.392 295.792 330.72 297.136 330.72 299.272V299.416C330.72 301.528 328.392 302.872 325.176 302.872H325.032C321.792 302.872 319.488 301.552 319.488 299.44V299.272C319.488 297.88 320.496 296.824 321.96 296.272V293.536C320.544 292.792 319.68 291.496 319.68 289.912ZM321.072 289.744V289.888C321.072 291.688 322.68 292.96 324.864 292.96H324.984C327.168 292.96 328.776 291.664 328.776 289.888V289.744C328.776 287.968 327.168 286.648 324.936 286.648H324.888C322.68 286.648 321.072 287.944 321.072 289.744ZM320.88 299.296V299.392C320.88 300.784 322.536 301.624 325.056 301.624H325.152C327.648 301.624 329.328 300.76 329.328 299.392V299.296C329.328 297.904 327.648 297.04 325.152 297.04H325.056C322.56 297.04 320.88 297.904 320.88 299.296ZM344.185 298.072C342.073 298.072 340.753 297.112 340.753 294.808V286.792H339.001V285.856C339.457 285.712 340.177 285.592 340.753 285.544V282.64L342.097 282.448V285.52H346.489V286.792H342.097V294.592C342.097 296.152 342.913 296.776 344.353 296.776C345.025 296.776 346.201 296.656 346.753 296.464V297.688C346.177 297.928 345.025 298.072 344.185 298.072ZM354.865 298.144C351.265 298.144 348.697 295.528 348.697 291.856V291.664C348.697 287.992 351.265 285.376 354.865 285.376H354.961C358.585 285.376 361.129 287.992 361.129 291.664V291.856C361.129 295.528 358.585 298.144 354.961 298.144H354.865ZM354.889 296.824H354.937C357.745 296.824 359.737 294.76 359.737 291.832V291.688C359.737 288.76 357.745 286.696 354.937 286.696H354.889C352.081 286.696 350.113 288.76 350.113 291.688V291.832C350.113 294.76 352.081 296.824 354.889 296.824ZM372.531 302.704C371.979 302.704 371.235 302.584 370.683 302.272V301C371.259 301.264 371.787 301.408 372.315 301.408C373.635 301.408 374.547 300.4 375.315 298.576L369.627 285.52H371.163L375.915 296.584H376.083L380.259 285.52H381.723L376.755 298.672C375.819 301.192 374.643 302.704 372.531 302.704ZM389.154 298.144C385.554 298.144 382.986 295.528 382.986 291.856V291.664C382.986 287.992 385.554 285.376 389.154 285.376H389.25C392.874 285.376 395.418 287.992 395.418 291.664V291.856C395.418 295.528 392.874 298.144 389.25 298.144H389.154ZM389.178 296.824H389.226C392.034 296.824 394.026 294.76 394.026 291.832V291.688C394.026 288.76 392.034 286.696 389.226 286.696H389.178C386.37 286.696 384.402 288.76 384.402 291.688V291.832C384.402 294.76 386.37 296.824 389.178 296.824ZM403.284 298.168C400.308 298.168 398.796 296.512 398.796 293.512V285.52H400.14V293.296C400.14 295.552 401.196 296.824 403.476 296.824H403.548C406.14 296.824 407.988 295.192 407.988 292.672V285.52H409.332V298H408.276C408.132 297.496 408.036 296.704 407.988 295.864C407.028 297.28 405.348 298.168 403.332 298.168H403.284ZM413.731 298V285.52H414.763C414.907 286.048 415.027 286.864 415.051 287.656C415.963 286.336 417.523 285.52 419.371 285.52H419.635V286.912C419.491 286.888 419.275 286.864 419.131 286.864C416.707 286.864 415.075 288.448 415.075 291.016V298H413.731ZM433.013 298.072C430.901 298.072 429.581 297.112 429.581 294.808V286.792H427.829V285.856C428.285 285.712 429.005 285.592 429.581 285.544V282.64L430.925 282.448V285.52H435.317V286.792H430.925V294.592C430.925 296.152 431.741 296.776 433.181 296.776C433.853 296.776 435.029 296.656 435.581 296.464V297.688C435.005 297.928 433.853 298.072 433.013 298.072ZM442.078 298.168C439.462 298.168 437.662 296.632 437.662 294.4V294.352C437.662 291.736 440.206 290.368 445.15 290.368H446.71V289.312C446.71 287.68 445.438 286.696 443.398 286.696H443.374C441.958 286.696 440.326 287.176 439.006 288.064L438.334 286.96C439.966 285.928 441.646 285.328 443.422 285.328H443.47C446.278 285.328 448.054 286.84 448.054 289.24V295.816C448.054 296.488 448.246 297.4 448.486 298H447.118C446.95 297.592 446.806 296.92 446.734 296.344C445.39 297.544 443.758 298.168 442.078 298.168ZM442.102 296.824C443.902 296.824 445.534 296.056 446.71 294.808V291.616H445.462C441.07 291.616 439.03 292.504 439.03 294.376V294.424C439.03 295.84 440.302 296.824 442.102 296.824ZM456.507 298.168C454.539 298.168 452.475 297.472 451.179 296.296L451.971 295.288C453.315 296.32 454.875 296.872 456.555 296.872C458.619 296.872 459.915 295.984 459.915 294.664C459.915 293.008 457.947 292.6 455.907 292.12C453.579 291.592 451.659 290.92 451.659 288.784C451.659 286.72 453.459 285.352 456.075 285.352C457.731 285.352 459.531 285.904 460.779 286.84L460.107 287.944C458.907 287.128 457.371 286.672 456.003 286.672C454.179 286.672 453.051 287.488 453.051 288.664C453.051 289.72 453.939 290.296 456.603 290.92C459.219 291.52 461.331 292.216 461.331 294.52C461.331 296.728 459.363 298.168 456.507 298.168ZM468.193 298.072C466.081 298.072 464.761 297.112 464.761 294.808V286.792H463.009V285.856C463.465 285.712 464.185 285.592 464.761 285.544V282.64L466.105 282.448V285.52H470.497V286.792H466.105V294.592C466.105 296.152 466.921 296.776 468.361 296.776C469.033 296.776 470.209 296.656 470.761 296.464V297.688C470.185 297.928 469.033 298.072 468.193 298.072ZM478.801 298.144C475.225 298.144 472.705 295.576 472.705 292.072V291.736C472.705 288.04 475.249 285.376 478.801 285.376H478.825C482.185 285.376 484.513 287.752 484.513 291.208V292.336H474.121V292.384C474.289 294.976 476.209 296.8 478.897 296.8C480.697 296.8 482.281 295.984 483.121 294.784L484.201 295.504C482.953 297.208 480.961 298.144 478.801 298.144ZM474.169 291.064H483.169V290.992C483.073 288.448 481.273 286.72 478.729 286.72C476.209 286.72 474.409 288.472 474.169 291.064Z" fill="#EFEFEF"/>
<path d="M140.739 493.868C148.345 497.258 157.794 499.614 165.96 500.151C188.171 501.619 207.042 491.248 220.294 470.238C221.929 467.726 224.064 463.905 225.164 461.725C226.196 459.546 227.163 457.702 227.23 457.635C227.297 457.568 227.306 459.92 227.184 462.876C226.511 488.233 237.023 513.395 260.995 524.658C268.501 528.215 279.094 530.98 286.99 531.448L290.485 531.664L291.718 529.217C295.085 522.747 298.028 511.169 298.53 502.571C299.819 480.707 289.8 462.324 269.253 448.669C265.851 446.404 259.049 442.614 255.852 441.156C255.482 440.987 258.639 440.865 262.906 440.916C292.839 441.139 313.75 428.592 323.629 404.344C326.257 397.938 328.401 388.239 328.841 380.783L328.999 378.264L326.609 377.078C318.025 372.844 306.559 370.211 296.447 370.136C280.053 370.002 267.98 375.06 256.102 386.937C249.511 393.528 244.668 400.463 240.271 409.582L238.472 413.337L238.616 407.392C238.964 394.023 236.427 381.381 231.381 371.249C225.86 360.107 216.383 350.965 204.838 345.509C197.332 341.952 186.873 339.255 178.842 338.719L175.348 338.503L174.115 340.95C169.481 349.901 166.585 364.603 167.334 375.323C168.833 396.963 182.614 415.361 206.211 427.114C208.398 428.164 210.216 429.112 210.318 429.214C210.385 429.281 207.899 429.271 204.808 429.124C188.378 428.621 173.344 432.456 162.121 440.104C160.379 441.306 157.098 444.115 154.79 446.423C148.031 453.182 143.494 460.823 140.376 470.754C137.788 478.739 136.091 490.893 137.339 492.073C137.676 492.344 139.191 493.19 140.739 493.868Z" fill="#EFEFEF"/>
</svg>
