<svg width="352" height="410" viewBox="0 0 352 410" fill="none" xmlns="http://www.w3.org/2000/svg">
<circle cx="176" cy="176" r="176" fill="#F8F78B"/>
<path d="M197.387 408.864C205.163 405.883 213.511 400.868 219.664 395.474C236.408 380.806 242.418 360.128 236.933 335.902C236.312 332.969 235.12 328.757 234.357 326.439C233.546 324.168 232.926 322.18 232.926 322.086C232.926 321.991 234.595 323.647 236.599 325.824C254.052 344.23 279.279 354.589 304.193 345.602C312.016 342.81 321.461 337.274 327.376 332.022L330 329.704L329.141 327.101C326.947 320.146 320.841 309.878 315.117 303.443C300.568 287.072 280.485 281.157 256.3 286.031C252.293 286.835 244.803 288.964 241.512 290.194C241.13 290.336 243.277 288.018 246.33 285.037C267.653 264.028 273.568 240.37 263.407 216.239C260.736 209.851 255.393 201.476 250.432 195.893L248.763 194L246.235 194.852C237.171 197.927 227.201 204.173 219.998 211.271C208.311 222.768 203.35 234.881 203.35 251.679C203.35 261 204.829 269.328 208.168 278.886L209.551 282.813L205.449 278.507C196.242 268.807 185.509 261.663 174.776 258.067C162.994 254.092 149.828 254.329 137.807 258.634C129.984 261.426 120.682 266.915 114.624 272.214L112 274.533L112.859 277.135C115.912 286.74 124.26 299.185 132.369 306.235C148.731 320.477 171.485 323.742 196.481 315.367C198.771 314.562 200.726 313.947 200.87 313.947C200.965 313.947 199.2 315.698 196.91 317.78C184.937 329.041 177.018 342.385 174.49 355.728C174.109 357.81 173.775 362.116 173.775 365.38C173.775 374.938 175.969 383.55 180.787 392.777C184.603 400.253 191.997 410.047 193.714 410C194.144 409.953 195.813 409.479 197.387 408.864Z" fill="#EFEFEF"/>
<path d="M35.464 132V109.6H40.456V127.648H49.224V132H35.464ZM54.7308 113.312C53.0988 113.312 52.0108 112.352 52.0108 110.912C52.0108 109.472 53.1308 108.448 54.7308 108.448C56.3948 108.448 57.5468 109.472 57.5468 110.912C57.5468 112.352 56.4268 113.312 54.7308 113.312ZM52.3628 132V115.36H57.1308V132H52.3628ZM60.4653 121.248V120.992C60.4653 117.376 63.6973 115.008 68.0813 115.008H68.7213C69.8093 115.008 70.8013 115.168 71.6973 115.424C72.0493 114.304 72.4013 113.536 72.7533 113.024H77.0093L74.8973 117.28C75.8573 118.24 76.4013 119.52 76.4013 120.992V121.248C76.4013 124.704 73.1373 127.232 68.7213 127.232H68.5933C68.3053 127.232 68.0173 127.2 67.7613 127.168V128.832C68.2413 128.832 68.6253 128.8 69.1373 128.8H69.4893C73.9053 128.8 77.2333 130.72 77.2333 133.6V133.952C77.2333 136.832 73.8733 138.752 69.3293 138.752H68.2093C63.6973 138.752 60.3372 136.832 60.3372 133.952V133.504C60.3372 131.648 61.8093 130.048 63.9852 129.216V126.368C61.8413 125.344 60.4653 123.488 60.4653 121.248ZM65.1373 121.088V121.504C65.1373 123.04 66.6093 124.096 68.3053 124.096H68.7213C70.4173 124.096 71.9213 122.944 71.9213 121.504V121.088C71.9213 119.552 70.4173 118.464 68.6892 118.464H68.3373C66.6093 118.464 65.1373 119.52 65.1373 121.088ZM65.0733 133.408V133.696C65.0733 134.656 66.3853 135.392 68.2733 135.392H69.2653C71.2173 135.392 72.5933 134.624 72.5933 133.696V133.408C72.5933 132.448 71.2173 131.68 69.2653 131.68H68.2733C66.3853 131.68 65.0733 132.448 65.0733 133.408ZM79.9565 132V108.96H84.7245V117.376C86.2285 115.904 88.2765 115.008 90.5805 115.008C94.3245 115.008 96.4685 117.376 96.4685 121.408V132H91.7005V122.432C91.7005 120.128 90.7405 119.008 88.6925 119.008C86.1965 119.008 84.7245 120.448 84.7245 122.848V132H79.9565ZM106.567 132.224C103.143 132.224 101.063 130.368 101.063 126.752V119.04H98.887V115.872C99.463 115.68 100.327 115.488 101.063 115.424V111.52L105.799 110.944V115.36H110.791V119.04H105.767V125.888C105.767 127.584 106.567 128.224 108.007 128.224C108.839 128.224 110.247 128 110.887 127.872V131.488C109.767 131.968 107.847 132.224 106.567 132.224ZM116.356 113.312C114.724 113.312 113.636 112.352 113.636 110.912C113.636 109.472 114.756 108.448 116.356 108.448C118.02 108.448 119.172 109.472 119.172 110.912C119.172 112.352 118.052 113.312 116.356 113.312ZM113.988 132V115.36H118.756V132H113.988ZM123.05 132V115.36H126.826C127.082 116.032 127.338 117.28 127.338 117.984C129.002 116 131.338 115.008 133.546 115.008H133.642C137.45 115.008 139.562 117.376 139.562 121.408V132H134.794V122.432C134.794 120.16 133.866 119.008 131.818 119.008H131.69C129.386 119.008 127.818 120.736 127.818 123.2V132H123.05ZM142.747 121.248V120.992C142.747 117.376 145.979 115.008 150.363 115.008H151.003C152.091 115.008 153.083 115.168 153.979 115.424C154.331 114.304 154.683 113.536 155.035 113.024H159.291L157.179 117.28C158.139 118.24 158.683 119.52 158.683 120.992V121.248C158.683 124.704 155.419 127.232 151.003 127.232H150.875C150.587 127.232 150.299 127.2 150.043 127.168V128.832C150.523 128.832 150.907 128.8 151.419 128.8H151.771C156.187 128.8 159.515 130.72 159.515 133.6V133.952C159.515 136.832 156.155 138.752 151.611 138.752H150.491C145.979 138.752 142.618 136.832 142.618 133.952V133.504C142.618 131.648 144.091 130.048 146.266 129.216V126.368C144.123 125.344 142.747 123.488 142.747 121.248ZM147.419 121.088V121.504C147.419 123.04 148.891 124.096 150.587 124.096H151.003C152.699 124.096 154.203 122.944 154.203 121.504V121.088C154.203 119.552 152.699 118.464 150.97 118.464H150.619C148.891 118.464 147.419 119.52 147.419 121.088ZM147.355 133.408V133.696C147.355 134.656 148.667 135.392 150.555 135.392H151.547C153.499 135.392 154.875 134.624 154.875 133.696V133.408C154.875 132.448 153.499 131.68 151.547 131.68H150.555C148.667 131.68 147.355 132.448 147.355 133.408ZM175.192 132.352C171.8 132.352 169.4 130.368 169.4 127.392V127.104C169.4 123.552 172.728 121.696 179.352 121.696H180.6V121.216C180.6 119.744 179.576 118.752 177.528 118.752H177.4C175.736 118.752 173.784 119.36 172.024 120.352L170.2 117.056C172.216 115.808 174.936 115.008 177.624 115.008H177.912C182.296 115.008 185.08 117.376 185.08 121.376V128.192C185.08 129.536 185.336 130.752 185.656 132H181.176C180.984 131.488 180.824 130.816 180.76 130.08C179.48 131.392 177.56 132.352 175.192 132.352ZM176.408 128.736C177.976 128.736 179.576 128.096 180.632 126.976V124.48H179.48C175.736 124.48 173.944 125.312 173.944 126.848V126.944C173.944 128 174.936 128.736 176.408 128.736ZM189.363 132V115.36H193.139C193.395 116.032 193.651 117.28 193.651 117.984C195.315 116 197.651 115.008 199.859 115.008H199.955C203.763 115.008 205.875 117.376 205.875 121.408V132H201.107V122.432C201.107 120.16 200.179 119.008 198.131 119.008H198.003C195.699 119.008 194.131 120.736 194.131 123.2V132H189.363ZM216.933 132.352C212.357 132.352 208.997 128.864 208.997 124V123.36C208.997 118.496 212.357 115.008 216.933 115.008H217.125C219.205 115.008 221.061 115.744 222.405 117.024V108.96H227.173V132H223.397C223.173 131.456 223.013 130.56 222.917 129.856C221.509 131.424 219.461 132.352 217.125 132.352H216.933ZM218.053 128.8H218.309C220.677 128.8 222.405 126.752 222.405 123.84V123.52C222.405 120.608 220.709 118.56 218.309 118.56H218.053C215.685 118.56 213.957 120.608 213.957 123.52V123.84C213.957 126.752 215.685 128.8 218.053 128.8ZM247.323 132.32C242.299 132.32 238.811 128.832 238.811 123.968V123.328C238.811 118.528 242.427 115.04 247.259 115.04H247.515C250.651 115.04 253.147 116.416 254.747 118.688L251.355 121.12C250.427 119.456 249.243 118.688 247.611 118.688H247.547C245.179 118.688 243.739 120.448 243.739 123.52V123.84C243.739 126.816 245.339 128.608 247.675 128.608H247.835C249.531 128.608 250.715 127.68 251.579 126.144L254.875 128.736C253.275 131.008 250.843 132.32 247.611 132.32H247.323ZM265.585 132.352C260.369 132.352 256.561 128.8 256.561 124V123.36C256.561 118.56 260.369 115.008 265.585 115.008H265.873C271.089 115.008 274.897 118.56 274.897 123.36V124C274.897 128.8 271.089 132.352 265.873 132.352H265.585ZM265.617 128.8H265.841C268.209 128.8 269.937 126.752 269.937 123.84V123.52C269.937 120.608 268.209 118.56 265.841 118.56H265.617C263.249 118.56 261.489 120.608 261.489 123.52V123.84C261.489 126.752 263.249 128.8 265.617 128.8ZM278.332 132V108.96H283.1V132H278.332ZM295.491 132.352C290.275 132.352 286.467 128.8 286.467 124V123.36C286.467 118.56 290.275 115.008 295.491 115.008H295.779C300.995 115.008 304.803 118.56 304.803 123.36V124C304.803 128.8 300.995 132.352 295.779 132.352H295.491ZM295.523 128.8H295.747C298.115 128.8 299.843 126.752 299.843 123.84V123.52C299.843 120.608 298.115 118.56 295.747 118.56H295.523C293.155 118.56 291.395 120.608 291.395 123.52V123.84C291.395 126.752 293.155 128.8 295.523 128.8ZM308.207 132V115.36H312.015C312.239 116 312.431 117.056 312.495 117.76C313.775 116.256 315.695 115.36 318.031 115.36H318.447V119.84C318.127 119.744 317.647 119.616 317.199 119.616C314.447 119.616 312.975 121.024 312.975 123.2V132H308.207ZM114.8 171.384C111.696 171.384 108.912 170.584 106.64 169.048L108.88 165.624C110.32 166.808 112.72 167.64 114.704 167.64C116.24 167.64 117.104 167.096 117.104 166.136C117.104 164.728 115.248 164.856 111.632 163.608C109.456 162.936 107.408 161.88 107.408 159.128C107.408 155.992 109.968 153.976 114 153.976C116.432 153.976 119.024 154.744 120.848 156.12L118.608 159.384C117.424 158.36 115.408 157.688 113.712 157.688C112.272 157.688 111.632 158.232 111.632 159.032C111.632 160.088 113.104 160.408 115.568 161.016C118.352 161.688 121.584 162.68 121.584 166.168C121.584 169.304 118.832 171.384 114.8 171.384ZM132.041 171.32C127.017 171.32 123.529 167.832 123.529 162.968V162.328C123.529 157.528 127.145 154.04 131.977 154.04H132.233C135.369 154.04 137.865 155.416 139.465 157.688L136.073 160.12C135.145 158.456 133.961 157.688 132.329 157.688H132.265C129.897 157.688 128.457 159.448 128.457 162.52V162.84C128.457 165.816 130.057 167.608 132.393 167.608H132.553C134.249 167.608 135.433 166.68 136.297 165.144L139.593 167.736C137.993 170.008 135.561 171.32 132.329 171.32H132.041ZM142.363 171V147.96H147.131V156.376C148.635 154.904 150.683 154.008 152.987 154.008C156.731 154.008 158.875 156.376 158.875 160.408V171H154.107V161.432C154.107 159.128 153.147 158.008 151.099 158.008C148.603 158.008 147.131 159.448 147.131 161.848V171H142.363ZM170.829 171.352C165.645 171.352 162.029 167.96 162.029 163V162.456C162.029 157.592 165.741 154.04 170.669 154.04H170.957C175.661 154.04 179.053 157.272 179.053 161.624V163.992H166.669C166.957 166.168 168.653 167.544 171.117 167.544H171.309C173.293 167.544 175.053 166.648 176.077 165.56L178.413 168.536C176.813 170.168 173.869 171.352 171.245 171.352H170.829ZM166.797 161.08H174.541C174.413 159 172.941 157.528 170.829 157.528H170.733C168.749 157.528 167.213 158.872 166.797 161.08ZM182.519 171V154.36H186.295C186.519 154.968 186.743 156.056 186.775 156.76C188.087 155.096 190.007 154.008 192.151 154.008H192.183C194.551 154.008 196.215 155.064 197.047 156.92C198.359 155.128 200.343 153.976 202.583 153.976H202.615C206.135 153.976 208.087 156.312 208.087 160.28V171H203.319V161.144C203.319 158.776 202.519 158.008 200.823 157.976H200.791C198.967 158.04 197.687 159.256 197.687 161.88V171H192.919V161.144C192.919 158.776 192.119 158.04 190.391 158.008H190.359C188.567 158.04 187.287 159.288 187.287 161.88V171H182.519ZM220.048 171.352C214.864 171.352 211.248 167.96 211.248 163V162.456C211.248 157.592 214.96 154.04 219.888 154.04H220.176C224.88 154.04 228.272 157.272 228.272 161.624V163.992H215.888C216.176 166.168 217.872 167.544 220.336 167.544H220.528C222.512 167.544 224.272 166.648 225.296 165.56L227.632 168.536C226.032 170.168 223.088 171.352 220.464 171.352H220.048ZM216.016 161.08H223.76C223.632 159 222.16 157.528 220.048 157.528H219.952C217.968 157.528 216.432 158.872 216.016 161.08ZM238.394 171.384C235.29 171.384 232.506 170.584 230.234 169.048L232.474 165.624C233.914 166.808 236.314 167.64 238.298 167.64C239.834 167.64 240.698 167.096 240.698 166.136C240.698 164.728 238.842 164.856 235.226 163.608C233.05 162.936 231.002 161.88 231.002 159.128C231.002 155.992 233.562 153.976 237.594 153.976C240.026 153.976 242.618 154.744 244.442 156.12L242.202 159.384C241.018 158.36 239.002 157.688 237.306 157.688C235.866 157.688 235.226 158.232 235.226 159.032C235.226 160.088 236.698 160.408 239.162 161.016C241.946 161.688 245.178 162.68 245.178 166.168C245.178 169.304 242.426 171.384 238.394 171.384Z" fill="#2D2F2F"/>
<path d="M45.2545 212.168C40.5745 212.168 37.3825 208.568 37.3825 203.624V203.552C37.3825 198.632 40.6465 195.008 45.2785 195.008C48.0865 195.008 50.3905 196.472 51.5905 198.512L50.3425 199.28C49.2865 197.48 47.5345 196.424 45.2785 196.424C41.4385 196.424 38.8945 199.376 38.8945 203.528V203.672C38.8945 207.848 41.4385 210.776 45.2785 210.776C47.6065 210.776 49.5505 209.648 50.5105 207.896L51.6865 208.664C50.5585 210.68 48.1105 212.168 45.2785 212.168H45.2545ZM54.5635 212V199.52H55.5955C55.7395 200.048 55.8595 200.864 55.8835 201.656C56.7955 200.336 58.3555 199.52 60.2035 199.52H60.4675V200.912C60.3235 200.888 60.1075 200.864 59.9635 200.864C57.5395 200.864 55.9075 202.448 55.9075 205.016V212H54.5635ZM68.8206 212.144C65.2446 212.144 62.7246 209.576 62.7246 206.072V205.736C62.7246 202.04 65.2686 199.376 68.8206 199.376H68.8446C72.2046 199.376 74.5326 201.752 74.5326 205.208V206.336H64.1406V206.384C64.3086 208.976 66.2286 210.8 68.9166 210.8C70.7166 210.8 72.3006 209.984 73.1406 208.784L74.2206 209.504C72.9726 211.208 70.9806 212.144 68.8206 212.144ZM64.1886 205.064H73.1886V204.992C73.0926 202.448 71.2926 200.72 68.7486 200.72C66.2286 200.72 64.4286 202.472 64.1886 205.064ZM81.621 212.168C79.005 212.168 77.205 210.632 77.205 208.4V208.352C77.205 205.736 79.749 204.368 84.693 204.368H86.253V203.312C86.253 201.68 84.981 200.696 82.941 200.696H82.917C81.501 200.696 79.869 201.176 78.549 202.064L77.877 200.96C79.509 199.928 81.189 199.328 82.965 199.328H83.013C85.821 199.328 87.597 200.84 87.597 203.24V209.816C87.597 210.488 87.789 211.4 88.029 212H86.661C86.493 211.592 86.349 210.92 86.277 210.344C84.933 211.544 83.301 212.168 81.621 212.168ZM81.645 210.824C83.445 210.824 85.077 210.056 86.253 208.808V205.616H85.005C80.613 205.616 78.573 206.504 78.573 208.376V208.424C78.573 209.84 79.845 210.824 81.645 210.824ZM95.5714 212.072C93.4594 212.072 92.1394 211.112 92.1394 208.808V200.792H90.3874V199.856C90.8434 199.712 91.5634 199.592 92.1394 199.544V196.64L93.4834 196.448V199.52H97.8754V200.792H93.4834V208.592C93.4834 210.152 94.2994 210.776 95.7394 210.776C96.4114 210.776 97.5874 210.656 98.1394 210.464V211.688C97.5634 211.928 96.4114 212.072 95.5714 212.072ZM101.853 197.264C101.277 197.264 100.869 196.856 100.869 196.304C100.869 195.752 101.277 195.32 101.853 195.32C102.381 195.32 102.813 195.752 102.813 196.304C102.813 196.856 102.381 197.264 101.853 197.264ZM101.181 212V199.52H102.525V212H101.181ZM106.923 212V199.52H107.955C108.099 200.024 108.219 200.84 108.243 201.68C109.227 200.24 110.931 199.352 112.971 199.352H113.043C116.067 199.352 117.627 201.008 117.627 204.008V212H116.283V204.224C116.283 201.968 115.179 200.696 112.851 200.696H112.755C110.091 200.696 108.267 202.328 108.267 204.848V212H106.923ZM120.942 203.912V203.72C120.942 201.2 123.126 199.376 126.126 199.376H126.222C127.518 199.376 128.646 199.712 129.51 200.288C129.798 199.592 130.11 198.968 130.59 198.32H131.934L130.446 201.08C131.07 201.8 131.43 202.712 131.43 203.72V203.912C131.43 206.432 129.222 208.232 126.222 208.232H126.126C125.55 208.232 125.022 208.16 124.518 208.016V209.936C125.046 209.84 125.67 209.792 126.294 209.792H126.438C129.654 209.792 131.982 211.136 131.982 213.272V213.416C131.982 215.528 129.654 216.872 126.438 216.872H126.294C123.054 216.872 120.75 215.552 120.75 213.44V213.272C120.75 211.88 121.758 210.824 123.222 210.272V207.536C121.806 206.792 120.942 205.496 120.942 203.912ZM122.334 203.744V203.888C122.334 205.688 123.942 206.96 126.126 206.96H126.246C128.43 206.96 130.038 205.664 130.038 203.888V203.744C130.038 201.968 128.43 200.648 126.198 200.648H126.15C123.942 200.648 122.334 201.944 122.334 203.744ZM122.142 213.296V213.392C122.142 214.784 123.798 215.624 126.318 215.624H126.414C128.91 215.624 130.59 214.76 130.59 213.392V213.296C130.59 211.904 128.91 211.04 126.414 211.04H126.318C123.822 211.04 122.142 211.904 122.142 213.296ZM145.23 212.168C142.614 212.168 140.814 210.632 140.814 208.4V208.352C140.814 205.736 143.358 204.368 148.302 204.368H149.862V203.312C149.862 201.68 148.59 200.696 146.55 200.696H146.526C145.11 200.696 143.478 201.176 142.158 202.064L141.486 200.96C143.118 199.928 144.798 199.328 146.574 199.328H146.622C149.43 199.328 151.206 200.84 151.206 203.24V209.816C151.206 210.488 151.398 211.4 151.638 212H150.27C150.102 211.592 149.958 210.92 149.886 210.344C148.542 211.544 146.91 212.168 145.23 212.168ZM145.254 210.824C147.054 210.824 148.686 210.056 149.862 208.808V205.616H148.614C144.222 205.616 142.182 206.504 142.182 208.376V208.424C142.182 209.84 143.454 210.824 145.254 210.824ZM155.579 212V199.52H156.611C156.755 200.024 156.875 200.84 156.899 201.68C157.883 200.24 159.587 199.352 161.627 199.352H161.699C164.723 199.352 166.283 201.008 166.283 204.008V212H164.939V204.224C164.939 201.968 163.835 200.696 161.507 200.696H161.411C158.747 200.696 156.923 202.328 156.923 204.848V212H155.579ZM180.574 212.168C177.958 212.168 176.158 210.632 176.158 208.4V208.352C176.158 205.736 178.702 204.368 183.646 204.368H185.206V203.312C185.206 201.68 183.934 200.696 181.894 200.696H181.87C180.454 200.696 178.822 201.176 177.502 202.064L176.83 200.96C178.462 199.928 180.142 199.328 181.918 199.328H181.966C184.774 199.328 186.55 200.84 186.55 203.24V209.816C186.55 210.488 186.742 211.4 186.982 212H185.614C185.446 211.592 185.302 210.92 185.23 210.344C183.886 211.544 182.254 212.168 180.574 212.168ZM180.598 210.824C182.398 210.824 184.03 210.056 185.206 208.808V205.616H183.958C179.566 205.616 177.526 206.504 177.526 208.376V208.424C177.526 209.84 178.798 210.824 180.598 210.824ZM194.525 212.072C192.413 212.072 191.093 211.112 191.093 208.808V200.792H189.341V199.856C189.797 199.712 190.517 199.592 191.093 199.544V196.64L192.437 196.448V199.52H196.829V200.792H192.437V208.592C192.437 210.152 193.253 210.776 194.693 210.776C195.365 210.776 196.541 210.656 197.093 210.464V211.688C196.517 211.928 195.365 212.072 194.525 212.072ZM200.134 212V199.52H201.166C201.286 199.904 201.382 200.672 201.43 201.44C202.318 200.144 203.758 199.352 205.462 199.352H205.51C207.478 199.352 208.75 200.216 209.254 201.872C210.094 200.312 211.654 199.352 213.574 199.352H213.622C216.262 199.352 217.63 200.936 217.63 203.84V212H216.286V204.032C216.286 201.872 215.326 200.696 213.358 200.696H213.31C211.102 200.696 209.542 202.16 209.542 204.608V212H208.198V204.032C208.198 201.872 207.238 200.696 205.246 200.696H205.198C202.99 200.696 201.478 202.16 201.478 204.608V212H200.134ZM227.189 212.144C223.589 212.144 221.021 209.528 221.021 205.856V205.664C221.021 201.992 223.589 199.376 227.189 199.376H227.285C230.909 199.376 233.453 201.992 233.453 205.664V205.856C233.453 209.528 230.909 212.144 227.285 212.144H227.189ZM227.213 210.824H227.261C230.069 210.824 232.061 208.76 232.061 205.832V205.688C232.061 202.76 230.069 200.696 227.261 200.696H227.213C224.405 200.696 222.437 202.76 222.437 205.688V205.832C222.437 208.76 224.405 210.824 227.213 210.824ZM240.847 212.168C238.879 212.168 236.815 211.472 235.519 210.296L236.311 209.288C237.655 210.32 239.215 210.872 240.895 210.872C242.959 210.872 244.255 209.984 244.255 208.664C244.255 207.008 242.287 206.6 240.247 206.12C237.919 205.592 235.999 204.92 235.999 202.784C235.999 200.72 237.799 199.352 240.415 199.352C242.071 199.352 243.871 199.904 245.119 200.84L244.447 201.944C243.247 201.128 241.711 200.672 240.343 200.672C238.519 200.672 237.391 201.488 237.391 202.664C237.391 203.72 238.279 204.296 240.943 204.92C243.559 205.52 245.671 206.216 245.671 208.52C245.671 210.728 243.703 212.168 240.847 212.168ZM248.86 216.8V199.52H249.892C250.036 200.072 250.156 201.08 250.204 201.944C251.212 200.36 252.964 199.376 255.076 199.376H255.172C258.676 199.376 261.22 201.968 261.22 205.664V205.856C261.22 209.552 258.676 212.144 255.172 212.144H255.076C252.964 212.144 251.212 211.16 250.204 209.576V216.8H248.86ZM254.932 210.8H255.052C257.884 210.8 259.804 208.808 259.804 205.832V205.688C259.804 202.712 257.884 200.72 255.052 200.72H254.932C252.124 200.72 250.204 202.712 250.204 205.688V205.832C250.204 208.808 252.124 210.8 254.932 210.8ZM264.845 212V194.72H266.189V201.728C267.197 200.264 268.949 199.352 271.061 199.352C273.965 199.352 275.549 201.008 275.549 204.008V212H274.205V204.224C274.205 201.896 273.005 200.696 270.725 200.696C268.013 200.696 266.189 202.376 266.189 204.848V212H264.845ZM285.032 212.144C281.456 212.144 278.936 209.576 278.936 206.072V205.736C278.936 202.04 281.48 199.376 285.032 199.376H285.056C288.416 199.376 290.744 201.752 290.744 205.208V206.336H280.352V206.384C280.52 208.976 282.44 210.8 285.128 210.8C286.928 210.8 288.512 209.984 289.352 208.784L290.432 209.504C289.184 211.208 287.192 212.144 285.032 212.144ZM280.4 205.064H289.4V204.992C289.304 202.448 287.504 200.72 284.96 200.72C282.44 200.72 280.64 202.472 280.4 205.064ZM294.376 212V199.52H295.408C295.552 200.048 295.672 200.864 295.696 201.656C296.608 200.336 298.168 199.52 300.016 199.52H300.28V200.912C300.136 200.888 299.92 200.864 299.776 200.864C297.352 200.864 295.72 202.448 295.72 205.016V212H294.376ZM308.633 212.144C305.057 212.144 302.537 209.576 302.537 206.072V205.736C302.537 202.04 305.081 199.376 308.633 199.376H308.657C312.017 199.376 314.345 201.752 314.345 205.208V206.336H303.953V206.384C304.121 208.976 306.041 210.8 308.729 210.8C310.529 210.8 312.113 209.984 312.953 208.784L314.033 209.504C312.785 211.208 310.793 212.144 308.633 212.144ZM304.001 205.064H313.001V204.992C312.905 202.448 311.105 200.72 308.561 200.72C306.041 200.72 304.241 202.472 304.001 205.064ZM69.2932 241L65.8372 228.52H67.2532L70.2292 239.464H70.4692L73.9492 228.52H75.5572L79.0132 239.512H79.2532L82.2532 228.52H83.6452L80.1892 241H78.1972L74.8132 230.368H74.6692L71.2852 241H69.2932ZM87.2394 226.264C86.6634 226.264 86.2554 225.856 86.2554 225.304C86.2554 224.752 86.6634 224.32 87.2394 224.32C87.7674 224.32 88.1994 224.752 88.1994 225.304C88.1994 225.856 87.7674 226.264 87.2394 226.264ZM86.5674 241V228.52H87.9114V241H86.5674ZM95.9816 241.072C93.8696 241.072 92.5496 240.112 92.5496 237.808V229.792H90.7976V228.856C91.2536 228.712 91.9736 228.592 92.5496 228.544V225.64L93.8936 225.448V228.52H98.2856V229.792H93.8936V237.592C93.8936 239.152 94.7096 239.776 96.1496 239.776C96.8216 239.776 97.9976 239.656 98.5496 239.464V240.688C97.9736 240.928 96.8216 241.072 95.9816 241.072ZM101.591 241V223.72H102.935V230.728C103.943 229.264 105.695 228.352 107.807 228.352C110.711 228.352 112.295 230.008 112.295 233.008V241H110.951V233.224C110.951 230.896 109.751 229.696 107.471 229.696C104.759 229.696 102.935 231.376 102.935 233.848V241H101.591ZM123.13 241V223.72H124.474V241H123.13ZM129.544 226.264C128.968 226.264 128.56 225.856 128.56 225.304C128.56 224.752 128.968 224.32 129.544 224.32C130.072 224.32 130.504 224.752 130.504 225.304C130.504 225.856 130.072 226.264 129.544 226.264ZM128.872 241V228.52H130.216V241H128.872ZM133.75 232.912V232.72C133.75 230.2 135.934 228.376 138.934 228.376H139.03C140.326 228.376 141.454 228.712 142.318 229.288C142.606 228.592 142.918 227.968 143.398 227.32H144.742L143.254 230.08C143.878 230.8 144.238 231.712 144.238 232.72V232.912C144.238 235.432 142.03 237.232 139.03 237.232H138.934C138.358 237.232 137.83 237.16 137.326 237.016V238.936C137.854 238.84 138.478 238.792 139.102 238.792H139.246C142.462 238.792 144.79 240.136 144.79 242.272V242.416C144.79 244.528 142.462 245.872 139.246 245.872H139.102C135.862 245.872 133.558 244.552 133.558 242.44V242.272C133.558 240.88 134.566 239.824 136.03 239.272V236.536C134.614 235.792 133.75 234.496 133.75 232.912ZM135.142 232.744V232.888C135.142 234.688 136.75 235.96 138.934 235.96H139.054C141.238 235.96 142.846 234.664 142.846 232.888V232.744C142.846 230.968 141.238 229.648 139.006 229.648H138.958C136.75 229.648 135.142 230.944 135.142 232.744ZM134.95 242.296V242.392C134.95 243.784 136.606 244.624 139.126 244.624H139.222C141.718 244.624 143.398 243.76 143.398 242.392V242.296C143.398 240.904 141.718 240.04 139.222 240.04H139.126C136.63 240.04 134.95 240.904 134.95 242.296ZM147.927 241V223.72H149.271V230.728C150.279 229.264 152.031 228.352 154.143 228.352C157.047 228.352 158.631 230.008 158.631 233.008V241H157.287V233.224C157.287 230.896 156.087 229.696 153.807 229.696C151.095 229.696 149.271 231.376 149.271 233.848V241H147.927ZM166.482 241.072C164.37 241.072 163.05 240.112 163.05 237.808V229.792H161.298V228.856C161.754 228.712 162.474 228.592 163.05 228.544V225.64L164.394 225.448V228.52H168.786V229.792H164.394V237.592C164.394 239.152 165.21 239.776 166.65 239.776C167.322 239.776 168.498 239.656 169.05 239.464V240.688C168.474 240.928 167.322 241.072 166.482 241.072ZM182.203 241.168C179.587 241.168 177.787 239.632 177.787 237.4V237.352C177.787 234.736 180.331 233.368 185.275 233.368H186.835V232.312C186.835 230.68 185.563 229.696 183.523 229.696H183.499C182.083 229.696 180.451 230.176 179.131 231.064L178.459 229.96C180.091 228.928 181.771 228.328 183.547 228.328H183.595C186.403 228.328 188.179 229.84 188.179 232.24V238.816C188.179 239.488 188.371 240.4 188.611 241H187.243C187.075 240.592 186.931 239.92 186.859 239.344C185.515 240.544 183.883 241.168 182.203 241.168ZM182.227 239.824C184.027 239.824 185.659 239.056 186.835 237.808V234.616H185.587C181.195 234.616 179.155 235.504 179.155 237.376V237.424C179.155 238.84 180.427 239.824 182.227 239.824ZM192.552 241V228.52H193.584C193.728 229.024 193.848 229.84 193.872 230.68C194.856 229.24 196.56 228.352 198.6 228.352H198.672C201.696 228.352 203.256 230.008 203.256 233.008V241H201.912V233.224C201.912 230.968 200.808 229.696 198.48 229.696H198.384C195.72 229.696 193.896 231.328 193.896 233.848V241H192.552ZM212.691 241.144C209.187 241.144 206.643 238.552 206.643 234.856V234.664C206.643 230.968 209.187 228.376 212.691 228.376H212.763C214.875 228.376 216.651 229.36 217.659 230.968V223.72H219.003V241H217.947C217.827 240.448 217.683 239.464 217.659 238.696V238.552C216.651 240.16 214.875 241.144 212.763 241.144H212.691ZM212.787 239.8H212.907C215.739 239.8 217.659 237.808 217.659 234.832V234.688C217.659 231.712 215.739 229.72 212.907 229.72H212.787C209.979 229.72 208.059 231.712 208.059 234.688V234.832C208.059 237.808 209.979 239.8 212.787 239.8ZM235.403 241.144C231.851 241.144 229.283 238.552 229.283 234.88V234.64C229.283 230.968 231.851 228.376 235.355 228.376H235.451C237.827 228.376 239.675 229.624 240.659 231.472L239.531 232.096C238.715 230.584 237.275 229.672 235.403 229.672H235.355C232.571 229.672 230.699 231.664 230.699 234.64V234.88C230.699 237.784 232.739 239.848 235.523 239.848H235.571C237.467 239.848 238.835 238.864 239.627 237.496L240.731 238.168C239.699 239.968 237.875 241.144 235.523 241.144H235.403ZM249.256 241.144C245.656 241.144 243.088 238.528 243.088 234.856V234.664C243.088 230.992 245.656 228.376 249.256 228.376H249.352C252.976 228.376 255.52 230.992 255.52 234.664V234.856C255.52 238.528 252.976 241.144 249.352 241.144H249.256ZM249.28 239.824H249.328C252.136 239.824 254.128 237.76 254.128 234.832V234.688C254.128 231.76 252.136 229.696 249.328 229.696H249.28C246.472 229.696 244.504 231.76 244.504 234.688V234.832C244.504 237.76 246.472 239.824 249.28 239.824ZM259.138 241V223.72H260.482V241H259.138ZM270.256 241.144C266.656 241.144 264.088 238.528 264.088 234.856V234.664C264.088 230.992 266.656 228.376 270.256 228.376H270.352C273.976 228.376 276.52 230.992 276.52 234.664V234.856C276.52 238.528 273.976 241.144 270.352 241.144H270.256ZM270.28 239.824H270.328C273.136 239.824 275.128 237.76 275.128 234.832V234.688C275.128 231.76 273.136 229.696 270.328 229.696H270.28C267.472 229.696 265.504 231.76 265.504 234.688V234.832C265.504 237.76 267.472 239.824 270.28 239.824ZM280.138 241V228.52H281.17C281.314 229.048 281.434 229.864 281.458 230.656C282.37 229.336 283.93 228.52 285.778 228.52H286.042V229.912C285.898 229.888 285.682 229.864 285.538 229.864C283.114 229.864 281.482 231.448 281.482 234.016V241H280.138Z" fill="#2D2F2F"/>
</svg>
